<?xml version="1.0" encoding="UTF-8" standalone="no"?><svg xmlns="http://www.w3.org/2000/svg" xmlns:xlink="http://www.w3.org/1999/xlink" contentScriptType="application/ecmascript" contentStyleType="text/css" height="970px" preserveAspectRatio="none" style="width:2450px;height:970px;background:#FFE299;" version="1.1" viewBox="0 0 2450 970" width="2450px" zoomAndPan="magnify"><defs><filter height="300%" id="fpfpnsiqbn8q8" width="300%" x="-1" y="-1"><feGaussianBlur result="blurOut" stdDeviation="2.0"/><feColorMatrix in="blurOut" result="blurOut2" type="matrix" values="0 0 0 0 0 0 0 0 0 0 0 0 0 0 0 0 0 0 .4 0"/><feOffset dx="4.0" dy="4.0" in="blurOut2" result="blurOut3"/><feBlend in="SourceGraphic" in2="blurOut3" mode="normal"/></filter></defs><g><!--MD5=[31527aabf2c1c1d368a74a3a7f6fbbff]
cluster src.main.java.org.example--><polygon fill="#FFE299" filter="url(#fpfpnsiqbn8q8)" points="22,71,234,71,241,93.2969,2428,93.2969,2428,958,22,958,22,71" style="stroke: #000000; stroke-width: 1.5;"/><line style="stroke: #000000; stroke-width: 1.5;" x1="22" x2="241" y1="93.2969" y2="93.2969"/><text fill="#000000" font-family="sans-serif" font-size="14" font-weight="bold" lengthAdjust="spacingAndGlyphs" textLength="206" x="26" y="85.9951">src.main.java.org.example</text><!--MD5=[82e865073170c2da8a76a939041dabe8]
cluster commands--><polygon fill="#FFE299" filter="url(#fpfpnsiqbn8q8)" points="1133,165,1224,165,1231,187.2969,2404,187.2969,2404,703,1133,703,1133,165" style="stroke: #000000; stroke-width: 1.5;"/><line style="stroke: #000000; stroke-width: 1.5;" x1="1133" x2="1231" y1="187.2969" y2="187.2969"/><text fill="#000000" font-family="sans-serif" font-size="14" font-weight="bold" lengthAdjust="spacingAndGlyphs" textLength="85" x="1137" y="179.9951">commands</text><!--MD5=[a60570e4b426f702ccbb0d459e3b9417]
cluster models--><polygon fill="#FFE299" filter="url(#fpfpnsiqbn8q8)" points="302,114,365,114,372,136.2969,1109,136.2969,1109,550.5,302,550.5,302,114" style="stroke: #000000; stroke-width: 1.5;"/><line style="stroke: #000000; stroke-width: 1.5;" x1="302" x2="372" y1="136.2969" y2="136.2969"/><text fill="#000000" font-family="sans-serif" font-size="14" font-weight="bold" lengthAdjust="spacingAndGlyphs" textLength="57" x="306" y="128.9951">models</text><!--MD5=[e2a75efa8a0f57c2afae8bf75386f79c]
cluster views--><polygon fill="#FFE299" filter="url(#fpfpnsiqbn8q8)" points="1216,727,1268,727,1275,749.2969,1713,749.2969,1713,934,1216,934,1216,727" style="stroke: #000000; stroke-width: 1.5;"/><line style="stroke: #000000; stroke-width: 1.5;" x1="1216" x2="1275" y1="749.2969" y2="749.2969"/><text fill="#000000" font-family="sans-serif" font-size="14" font-weight="bold" lengthAdjust="spacingAndGlyphs" textLength="46" x="1220" y="741.9951">views</text><!--MD5=[d5ac3844f66b12d9e08170e47495e096]
cluster app--><polygon fill="#FFE299" filter="url(#fpfpnsiqbn8q8)" points="46,152.5,81,152.5,88,174.7969,278,174.7969,278,289.5,46,289.5,46,152.5" style="stroke: #000000; stroke-width: 1.5;"/><line style="stroke: #000000; stroke-width: 1.5;" x1="46" x2="88" y1="174.7969" y2="174.7969"/><text fill="#000000" font-family="sans-serif" font-size="14" font-weight="bold" lengthAdjust="spacingAndGlyphs" textLength="29" x="50" y="167.4951">app</text><!--MD5=[80098cfe57bf01eaa26ee1222e5e22f9]
class AddPlayerToTeamCommand--><rect fill="#FEFECE" filter="url(#fpfpnsiqbn8q8)" height="48" id="AddPlayerToTeamCommand" rx="6.5" ry="6.5" style="stroke: #A80036; stroke-width: 1.5;" width="205" x="1160.5" y="206.5"/><ellipse cx="1175.5" cy="222.5" fill="#ADD1B2" rx="11" ry="11" style="stroke: #A80036; stroke-width: 1.0;"/><path d="M1178.4688,228.1406 Q1177.8906,228.4375 1177.25,228.5781 Q1176.6094,228.7344 1175.9063,228.7344 Q1173.4063,228.7344 1172.0781,227.0938 Q1170.7656,225.4375 1170.7656,222.3125 Q1170.7656,219.1875 1172.0781,217.5313 Q1173.4063,215.875 1175.9063,215.875 Q1176.6094,215.875 1177.25,216.0313 Q1177.9063,216.1875 1178.4688,216.4844 L1178.4688,219.2031 Q1177.8438,218.625 1177.25,218.3594 Q1176.6563,218.0781 1176.0313,218.0781 Q1174.6875,218.0781 1174,219.1563 Q1173.3125,220.2188 1173.3125,222.3125 Q1173.3125,224.4063 1174,225.4844 Q1174.6875,226.5469 1176.0313,226.5469 Q1176.6563,226.5469 1177.25,226.2813 Q1177.8438,226 1178.4688,225.4219 L1178.4688,228.1406 Z "/><text fill="#000000" font-family="sans-serif" font-size="12" lengthAdjust="spacingAndGlyphs" textLength="173" x="1189.5" y="226.6543">AddPlayerToTeamCommand</text><line style="stroke: #A80036; stroke-width: 1.5;" x1="1161.5" x2="1364.5" y1="238.5" y2="238.5"/><line style="stroke: #A80036; stroke-width: 1.5;" x1="1161.5" x2="1364.5" y1="246.5" y2="246.5"/><!--MD5=[5deacb01d1025804fde4fa369e22d838]
class CreatePlayerCommand--><rect fill="#FEFECE" filter="url(#fpfpnsiqbn8q8)" height="60.8047" id="CreatePlayerCommand" rx="6.5" ry="6.5" style="stroke: #A80036; stroke-width: 1.5;" width="315" x="1400.5" y="200"/><ellipse cx="1482.75" cy="216" fill="#ADD1B2" rx="11" ry="11" style="stroke: #A80036; stroke-width: 1.0;"/><path d="M1485.7188,221.6406 Q1485.1406,221.9375 1484.5,222.0781 Q1483.8594,222.2344 1483.1563,222.2344 Q1480.6563,222.2344 1479.3281,220.5938 Q1478.0156,218.9375 1478.0156,215.8125 Q1478.0156,212.6875 1479.3281,211.0313 Q1480.6563,209.375 1483.1563,209.375 Q1483.8594,209.375 1484.5,209.5313 Q1485.1563,209.6875 1485.7188,209.9844 L1485.7188,212.7031 Q1485.0938,212.125 1484.5,211.8594 Q1483.9063,211.5781 1483.2813,211.5781 Q1481.9375,211.5781 1481.25,212.6563 Q1480.5625,213.7188 1480.5625,215.8125 Q1480.5625,217.9063 1481.25,218.9844 Q1481.9375,220.0469 1483.2813,220.0469 Q1483.9063,220.0469 1484.5,219.7813 Q1485.0938,219.5 1485.7188,218.9219 L1485.7188,221.6406 Z "/><text fill="#000000" font-family="sans-serif" font-size="12" lengthAdjust="spacingAndGlyphs" textLength="142" x="1503.25" y="220.1543">CreatePlayerCommand</text><line style="stroke: #A80036; stroke-width: 1.5;" x1="1401.5" x2="1714.5" y1="232" y2="232"/><line style="stroke: #A80036; stroke-width: 1.5;" x1="1401.5" x2="1714.5" y1="240" y2="240"/><ellipse cx="1411.5" cy="251" fill="#84BE84" rx="3" ry="3" style="stroke: #038048; stroke-width: 1.0;"/><text fill="#000000" font-family="sans-serif" font-size="11" lengthAdjust="spacingAndGlyphs" textLength="289" x="1420.5" y="254.2104">CreatePlayerCommand(ParticipantSet participants)</text><!--MD5=[f944070abb8f1aa2cf3cd6072c30bed1]
class CreateTeamCommand--><rect fill="#FEFECE" filter="url(#fpfpnsiqbn8q8)" height="48" id="CreateTeamCommand" rx="6.5" ry="6.5" style="stroke: #A80036; stroke-width: 1.5;" width="170" x="1751" y="206.5"/><ellipse cx="1766" cy="222.5" fill="#ADD1B2" rx="11" ry="11" style="stroke: #A80036; stroke-width: 1.0;"/><path d="M1768.9688,228.1406 Q1768.3906,228.4375 1767.75,228.5781 Q1767.1094,228.7344 1766.4063,228.7344 Q1763.9063,228.7344 1762.5781,227.0938 Q1761.2656,225.4375 1761.2656,222.3125 Q1761.2656,219.1875 1762.5781,217.5313 Q1763.9063,215.875 1766.4063,215.875 Q1767.1094,215.875 1767.75,216.0313 Q1768.4063,216.1875 1768.9688,216.4844 L1768.9688,219.2031 Q1768.3438,218.625 1767.75,218.3594 Q1767.1563,218.0781 1766.5313,218.0781 Q1765.1875,218.0781 1764.5,219.1563 Q1763.8125,220.2188 1763.8125,222.3125 Q1763.8125,224.4063 1764.5,225.4844 Q1765.1875,226.5469 1766.5313,226.5469 Q1767.1563,226.5469 1767.75,226.2813 Q1768.3438,226 1768.9688,225.4219 L1768.9688,228.1406 Z "/><text fill="#000000" font-family="sans-serif" font-size="12" lengthAdjust="spacingAndGlyphs" textLength="138" x="1780" y="226.6543">CreateTeamCommand</text><line style="stroke: #A80036; stroke-width: 1.5;" x1="1752" x2="1920" y1="238.5" y2="238.5"/><line style="stroke: #A80036; stroke-width: 1.5;" x1="1752" x2="1920" y1="246.5" y2="246.5"/><!--MD5=[ed2b5fa772bafc461a069e860b8fc18f]
class CreateTournamentCommand--><rect fill="#FEFECE" filter="url(#fpfpnsiqbn8q8)" height="48" id="CreateTournamentCommand" rx="6.5" ry="6.5" style="stroke: #A80036; stroke-width: 1.5;" width="212" x="1956" y="206.5"/><ellipse cx="1971" cy="222.5" fill="#ADD1B2" rx="11" ry="11" style="stroke: #A80036; stroke-width: 1.0;"/><path d="M1973.9688,228.1406 Q1973.3906,228.4375 1972.75,228.5781 Q1972.1094,228.7344 1971.4063,228.7344 Q1968.9063,228.7344 1967.5781,227.0938 Q1966.2656,225.4375 1966.2656,222.3125 Q1966.2656,219.1875 1967.5781,217.5313 Q1968.9063,215.875 1971.4063,215.875 Q1972.1094,215.875 1972.75,216.0313 Q1973.4063,216.1875 1973.9688,216.4844 L1973.9688,219.2031 Q1973.3438,218.625 1972.75,218.3594 Q1972.1563,218.0781 1971.5313,218.0781 Q1970.1875,218.0781 1969.5,219.1563 Q1968.8125,220.2188 1968.8125,222.3125 Q1968.8125,224.4063 1969.5,225.4844 Q1970.1875,226.5469 1971.5313,226.5469 Q1972.1563,226.5469 1972.75,226.2813 Q1973.3438,226 1973.9688,225.4219 L1973.9688,228.1406 Z "/><text fill="#000000" font-family="sans-serif" font-size="12" lengthAdjust="spacingAndGlyphs" textLength="180" x="1985" y="226.6543">CreateTournamentCommand</text><line style="stroke: #A80036; stroke-width: 1.5;" x1="1957" x2="2167" y1="238.5" y2="238.5"/><line style="stroke: #A80036; stroke-width: 1.5;" x1="1957" x2="2167" y1="246.5" y2="246.5"/><!--MD5=[79b5f5a601a00d56d6a2ee754a1dd6dc]
class DeletePlayerCommand--><rect fill="#FEFECE" filter="url(#fpfpnsiqbn8q8)" height="48" id="DeletePlayerCommand" rx="6.5" ry="6.5" style="stroke: #A80036; stroke-width: 1.5;" width="173" x="1182.5" y="372"/><ellipse cx="1197.5" cy="388" fill="#ADD1B2" rx="11" ry="11" style="stroke: #A80036; stroke-width: 1.0;"/><path d="M1200.4688,393.6406 Q1199.8906,393.9375 1199.25,394.0781 Q1198.6094,394.2344 1197.9063,394.2344 Q1195.4063,394.2344 1194.0781,392.5938 Q1192.7656,390.9375 1192.7656,387.8125 Q1192.7656,384.6875 1194.0781,383.0313 Q1195.4063,381.375 1197.9063,381.375 Q1198.6094,381.375 1199.25,381.5313 Q1199.9063,381.6875 1200.4688,381.9844 L1200.4688,384.7031 Q1199.8438,384.125 1199.25,383.8594 Q1198.6563,383.5781 1198.0313,383.5781 Q1196.6875,383.5781 1196,384.6563 Q1195.3125,385.7188 1195.3125,387.8125 Q1195.3125,389.9063 1196,390.9844 Q1196.6875,392.0469 1198.0313,392.0469 Q1198.6563,392.0469 1199.25,391.7813 Q1199.8438,391.5 1200.4688,390.9219 L1200.4688,393.6406 Z "/><text fill="#000000" font-family="sans-serif" font-size="12" lengthAdjust="spacingAndGlyphs" textLength="141" x="1211.5" y="392.1543">DeletePlayerCommand</text><line style="stroke: #A80036; stroke-width: 1.5;" x1="1183.5" x2="1354.5" y1="404" y2="404"/><line style="stroke: #A80036; stroke-width: 1.5;" x1="1183.5" x2="1354.5" y1="412" y2="412"/><!--MD5=[c117f14b7b80dc28711b232251e20a79]
class DeleteTeamCommand--><rect fill="#FEFECE" filter="url(#fpfpnsiqbn8q8)" height="48" id="DeleteTeamCommand" rx="6.5" ry="6.5" style="stroke: #A80036; stroke-width: 1.5;" width="169" x="1390.5" y="372"/><ellipse cx="1405.5" cy="388" fill="#ADD1B2" rx="11" ry="11" style="stroke: #A80036; stroke-width: 1.0;"/><path d="M1408.4688,393.6406 Q1407.8906,393.9375 1407.25,394.0781 Q1406.6094,394.2344 1405.9063,394.2344 Q1403.4063,394.2344 1402.0781,392.5938 Q1400.7656,390.9375 1400.7656,387.8125 Q1400.7656,384.6875 1402.0781,383.0313 Q1403.4063,381.375 1405.9063,381.375 Q1406.6094,381.375 1407.25,381.5313 Q1407.9063,381.6875 1408.4688,381.9844 L1408.4688,384.7031 Q1407.8438,384.125 1407.25,383.8594 Q1406.6563,383.5781 1406.0313,383.5781 Q1404.6875,383.5781 1404,384.6563 Q1403.3125,385.7188 1403.3125,387.8125 Q1403.3125,389.9063 1404,390.9844 Q1404.6875,392.0469 1406.0313,392.0469 Q1406.6563,392.0469 1407.25,391.7813 Q1407.8438,391.5 1408.4688,390.9219 L1408.4688,393.6406 Z "/><text fill="#000000" font-family="sans-serif" font-size="12" lengthAdjust="spacingAndGlyphs" textLength="137" x="1419.5" y="392.1543">DeleteTeamCommand</text><line style="stroke: #A80036; stroke-width: 1.5;" x1="1391.5" x2="1558.5" y1="404" y2="404"/><line style="stroke: #A80036; stroke-width: 1.5;" x1="1391.5" x2="1558.5" y1="412" y2="412"/><!--MD5=[ffaa658111ac8f6b77849a11a67484cc]
class DeleteTournamentCommand--><rect fill="#FEFECE" filter="url(#fpfpnsiqbn8q8)" height="48" id="DeleteTournamentCommand" rx="6.5" ry="6.5" style="stroke: #A80036; stroke-width: 1.5;" width="211" x="1594.5" y="372"/><ellipse cx="1609.5" cy="388" fill="#ADD1B2" rx="11" ry="11" style="stroke: #A80036; stroke-width: 1.0;"/><path d="M1612.4688,393.6406 Q1611.8906,393.9375 1611.25,394.0781 Q1610.6094,394.2344 1609.9063,394.2344 Q1607.4063,394.2344 1606.0781,392.5938 Q1604.7656,390.9375 1604.7656,387.8125 Q1604.7656,384.6875 1606.0781,383.0313 Q1607.4063,381.375 1609.9063,381.375 Q1610.6094,381.375 1611.25,381.5313 Q1611.9063,381.6875 1612.4688,381.9844 L1612.4688,384.7031 Q1611.8438,384.125 1611.25,383.8594 Q1610.6563,383.5781 1610.0313,383.5781 Q1608.6875,383.5781 1608,384.6563 Q1607.3125,385.7188 1607.3125,387.8125 Q1607.3125,389.9063 1608,390.9844 Q1608.6875,392.0469 1610.0313,392.0469 Q1610.6563,392.0469 1611.25,391.7813 Q1611.8438,391.5 1612.4688,390.9219 L1612.4688,393.6406 Z "/><text fill="#000000" font-family="sans-serif" font-size="12" lengthAdjust="spacingAndGlyphs" textLength="179" x="1623.5" y="392.1543">DeleteTournamentCommand</text><line style="stroke: #A80036; stroke-width: 1.5;" x1="1595.5" x2="1804.5" y1="404" y2="404"/><line style="stroke: #A80036; stroke-width: 1.5;" x1="1595.5" x2="1804.5" y1="412" y2="412"/><!--MD5=[1fc14bc977b4803d2594608cef2be56f]
class RemovePlayerFromTeamCommand--><rect fill="#FEFECE" filter="url(#fpfpnsiqbn8q8)" height="48" id="RemovePlayerFromTeamCommand" rx="6.5" ry="6.5" style="stroke: #A80036; stroke-width: 1.5;" width="246" x="1841" y="372"/><ellipse cx="1856" cy="388" fill="#ADD1B2" rx="11" ry="11" style="stroke: #A80036; stroke-width: 1.0;"/><path d="M1858.9688,393.6406 Q1858.3906,393.9375 1857.75,394.0781 Q1857.1094,394.2344 1856.4063,394.2344 Q1853.9063,394.2344 1852.5781,392.5938 Q1851.2656,390.9375 1851.2656,387.8125 Q1851.2656,384.6875 1852.5781,383.0313 Q1853.9063,381.375 1856.4063,381.375 Q1857.1094,381.375 1857.75,381.5313 Q1858.4063,381.6875 1858.9688,381.9844 L1858.9688,384.7031 Q1858.3438,384.125 1857.75,383.8594 Q1857.1563,383.5781 1856.5313,383.5781 Q1855.1875,383.5781 1854.5,384.6563 Q1853.8125,385.7188 1853.8125,387.8125 Q1853.8125,389.9063 1854.5,390.9844 Q1855.1875,392.0469 1856.5313,392.0469 Q1857.1563,392.0469 1857.75,391.7813 Q1858.3438,391.5 1858.9688,390.9219 L1858.9688,393.6406 Z "/><text fill="#000000" font-family="sans-serif" font-size="12" lengthAdjust="spacingAndGlyphs" textLength="214" x="1870" y="392.1543">RemovePlayerFromTeamCommand</text><line style="stroke: #A80036; stroke-width: 1.5;" x1="1842" x2="2086" y1="404" y2="404"/><line style="stroke: #A80036; stroke-width: 1.5;" x1="1842" x2="2086" y1="412" y2="412"/><!--MD5=[cde3b4cbc2777eec07b4a2edbd49f416]
class TournamentMatchmakingCommand--><rect fill="#FEFECE" filter="url(#fpfpnsiqbn8q8)" height="48" id="TournamentMatchmakingCommand" rx="6.5" ry="6.5" style="stroke: #A80036; stroke-width: 1.5;" width="253" x="1149.5" y="486.5"/><ellipse cx="1164.5" cy="502.5" fill="#ADD1B2" rx="11" ry="11" style="stroke: #A80036; stroke-width: 1.0;"/><path d="M1167.4688,508.1406 Q1166.8906,508.4375 1166.25,508.5781 Q1165.6094,508.7344 1164.9063,508.7344 Q1162.4063,508.7344 1161.0781,507.0938 Q1159.7656,505.4375 1159.7656,502.3125 Q1159.7656,499.1875 1161.0781,497.5313 Q1162.4063,495.875 1164.9063,495.875 Q1165.6094,495.875 1166.25,496.0313 Q1166.9063,496.1875 1167.4688,496.4844 L1167.4688,499.2031 Q1166.8438,498.625 1166.25,498.3594 Q1165.6563,498.0781 1165.0313,498.0781 Q1163.6875,498.0781 1163,499.1563 Q1162.3125,500.2188 1162.3125,502.3125 Q1162.3125,504.4063 1163,505.4844 Q1163.6875,506.5469 1165.0313,506.5469 Q1165.6563,506.5469 1166.25,506.2813 Q1166.8438,506 1167.4688,505.4219 L1167.4688,508.1406 Z "/><text fill="#000000" font-family="sans-serif" font-size="12" lengthAdjust="spacingAndGlyphs" textLength="221" x="1178.5" y="506.6543">TournamentMatchmakingCommand</text><line style="stroke: #A80036; stroke-width: 1.5;" x1="1150.5" x2="1401.5" y1="518.5" y2="518.5"/><line style="stroke: #A80036; stroke-width: 1.5;" x1="1150.5" x2="1401.5" y1="526.5" y2="526.5"/><!--MD5=[8ed7dd921cf376538ee12734daa48811]
class AddCurrentToTournamentCommand--><rect fill="#FEFECE" filter="url(#fpfpnsiqbn8q8)" height="48" id="AddCurrentToTournamentCommand" rx="6.5" ry="6.5" style="stroke: #A80036; stroke-width: 1.5;" width="256" x="1438" y="486.5"/><ellipse cx="1453" cy="502.5" fill="#ADD1B2" rx="11" ry="11" style="stroke: #A80036; stroke-width: 1.0;"/><path d="M1455.9688,508.1406 Q1455.3906,508.4375 1454.75,508.5781 Q1454.1094,508.7344 1453.4063,508.7344 Q1450.9063,508.7344 1449.5781,507.0938 Q1448.2656,505.4375 1448.2656,502.3125 Q1448.2656,499.1875 1449.5781,497.5313 Q1450.9063,495.875 1453.4063,495.875 Q1454.1094,495.875 1454.75,496.0313 Q1455.4063,496.1875 1455.9688,496.4844 L1455.9688,499.2031 Q1455.3438,498.625 1454.75,498.3594 Q1454.1563,498.0781 1453.5313,498.0781 Q1452.1875,498.0781 1451.5,499.1563 Q1450.8125,500.2188 1450.8125,502.3125 Q1450.8125,504.4063 1451.5,505.4844 Q1452.1875,506.5469 1453.5313,506.5469 Q1454.1563,506.5469 1454.75,506.2813 Q1455.3438,506 1455.9688,505.4219 L1455.9688,508.1406 Z "/><text fill="#000000" font-family="sans-serif" font-size="12" lengthAdjust="spacingAndGlyphs" textLength="224" x="1467" y="506.6543">AddCurrentToTournamentCommand</text><line style="stroke: #A80036; stroke-width: 1.5;" x1="1439" x2="1693" y1="518.5" y2="518.5"/><line style="stroke: #A80036; stroke-width: 1.5;" x1="1439" x2="1693" y1="526.5" y2="526.5"/><!--MD5=[056a8352f392efb89b2bff7ea47d0288]
class RemoveCurrentFromTournamentCommand--><rect fill="#FEFECE" filter="url(#fpfpnsiqbn8q8)" height="48" id="RemoveCurrentFromTournamentCommand" rx="6.5" ry="6.5" style="stroke: #A80036; stroke-width: 1.5;" width="297" x="1729.5" y="486.5"/><ellipse cx="1744.5" cy="502.5" fill="#ADD1B2" rx="11" ry="11" style="stroke: #A80036; stroke-width: 1.0;"/><path d="M1747.4688,508.1406 Q1746.8906,508.4375 1746.25,508.5781 Q1745.6094,508.7344 1744.9063,508.7344 Q1742.4063,508.7344 1741.0781,507.0938 Q1739.7656,505.4375 1739.7656,502.3125 Q1739.7656,499.1875 1741.0781,497.5313 Q1742.4063,495.875 1744.9063,495.875 Q1745.6094,495.875 1746.25,496.0313 Q1746.9063,496.1875 1747.4688,496.4844 L1747.4688,499.2031 Q1746.8438,498.625 1746.25,498.3594 Q1745.6563,498.0781 1745.0313,498.0781 Q1743.6875,498.0781 1743,499.1563 Q1742.3125,500.2188 1742.3125,502.3125 Q1742.3125,504.4063 1743,505.4844 Q1743.6875,506.5469 1745.0313,506.5469 Q1745.6563,506.5469 1746.25,506.2813 Q1746.8438,506 1747.4688,505.4219 L1747.4688,508.1406 Z "/><text fill="#000000" font-family="sans-serif" font-size="12" lengthAdjust="spacingAndGlyphs" textLength="265" x="1758.5" y="506.6543">RemoveCurrentFromTournamentCommand</text><line style="stroke: #A80036; stroke-width: 1.5;" x1="1730.5" x2="2025.5" y1="518.5" y2="518.5"/><line style="stroke: #A80036; stroke-width: 1.5;" x1="1730.5" x2="2025.5" y1="526.5" y2="526.5"/><!--MD5=[9a327b4ebbcef537bbeb020f52d954d4]
class ShowStatisticsCommand--><rect fill="#FEFECE" filter="url(#fpfpnsiqbn8q8)" height="60.8047" id="ShowStatisticsCommand" rx="6.5" ry="6.5" style="stroke: #A80036; stroke-width: 1.5;" width="326" x="2062" y="480"/><ellipse cx="2144.25" cy="496" fill="#ADD1B2" rx="11" ry="11" style="stroke: #A80036; stroke-width: 1.0;"/><path d="M2147.2188,501.6406 Q2146.6406,501.9375 2146,502.0781 Q2145.3594,502.2344 2144.6563,502.2344 Q2142.1563,502.2344 2140.8281,500.5938 Q2139.5156,498.9375 2139.5156,495.8125 Q2139.5156,492.6875 2140.8281,491.0313 Q2142.1563,489.375 2144.6563,489.375 Q2145.3594,489.375 2146,489.5313 Q2146.6563,489.6875 2147.2188,489.9844 L2147.2188,492.7031 Q2146.5938,492.125 2146,491.8594 Q2145.4063,491.5781 2144.7813,491.5781 Q2143.4375,491.5781 2142.75,492.6563 Q2142.0625,493.7188 2142.0625,495.8125 Q2142.0625,497.9063 2142.75,498.9844 Q2143.4375,500.0469 2144.7813,500.0469 Q2145.4063,500.0469 2146,499.7813 Q2146.5938,499.5 2147.2188,498.9219 L2147.2188,501.6406 Z "/><text fill="#000000" font-family="sans-serif" font-size="12" lengthAdjust="spacingAndGlyphs" textLength="153" x="2164.75" y="500.1543">ShowStatisticsCommand</text><line style="stroke: #A80036; stroke-width: 1.5;" x1="2063" x2="2387" y1="512" y2="512"/><line style="stroke: #A80036; stroke-width: 1.5;" x1="2063" x2="2387" y1="520" y2="520"/><ellipse cx="2073" cy="531" fill="#84BE84" rx="3" ry="3" style="stroke: #038048; stroke-width: 1.0;"/><text fill="#000000" font-family="sans-serif" font-size="11" lengthAdjust="spacingAndGlyphs" textLength="300" x="2082" y="534.2104">ShowStatisticsCommand(ParticipantSet participants)</text><!--MD5=[e40388dd56f3eba72af3e3cbb6f3c87a]
class ExitCommand--><rect fill="#FEFECE" filter="url(#fpfpnsiqbn8q8)" height="86.4141" id="ExitCommand" rx="6.5" ry="6.5" style="stroke: #A80036; stroke-width: 1.5;" width="184" x="1184" y="601"/><ellipse cx="1229.75" cy="617" fill="#ADD1B2" rx="11" ry="11" style="stroke: #A80036; stroke-width: 1.0;"/><path d="M1232.7188,622.6406 Q1232.1406,622.9375 1231.5,623.0781 Q1230.8594,623.2344 1230.1563,623.2344 Q1227.6563,623.2344 1226.3281,621.5938 Q1225.0156,619.9375 1225.0156,616.8125 Q1225.0156,613.6875 1226.3281,612.0313 Q1227.6563,610.375 1230.1563,610.375 Q1230.8594,610.375 1231.5,610.5313 Q1232.1563,610.6875 1232.7188,610.9844 L1232.7188,613.7031 Q1232.0938,613.125 1231.5,612.8594 Q1230.9063,612.5781 1230.2813,612.5781 Q1228.9375,612.5781 1228.25,613.6563 Q1227.5625,614.7188 1227.5625,616.8125 Q1227.5625,618.9063 1228.25,619.9844 Q1228.9375,621.0469 1230.2813,621.0469 Q1230.9063,621.0469 1231.5,620.7813 Q1232.0938,620.5 1232.7188,619.9219 L1232.7188,622.6406 Z "/><text fill="#000000" font-family="sans-serif" font-size="12" lengthAdjust="spacingAndGlyphs" textLength="84" x="1250.25" y="621.1543">ExitCommand</text><line style="stroke: #A80036; stroke-width: 1.5;" x1="1185" x2="1367" y1="633" y2="633"/><rect fill="none" height="6" style="stroke: #C82930; stroke-width: 1.0;" width="6" x="1192" y="641"/><text fill="#000000" font-family="sans-serif" font-size="11" lengthAdjust="spacingAndGlyphs" textLength="100" x="1204" y="647.2104">boolean executed</text><line style="stroke: #A80036; stroke-width: 1.5;" x1="1185" x2="1367" y1="653.8047" y2="653.8047"/><ellipse cx="1195" cy="664.8047" fill="#84BE84" rx="3" ry="3" style="stroke: #038048; stroke-width: 1.0;"/><text fill="#000000" font-family="sans-serif" font-size="11" lengthAdjust="spacingAndGlyphs" textLength="86" x="1204" y="668.0151">ExitCommand()</text><ellipse cx="1195" cy="677.6094" fill="#84BE84" rx="3" ry="3" style="stroke: #038048; stroke-width: 1.0;"/><text fill="#000000" font-family="sans-serif" font-size="11" lengthAdjust="spacingAndGlyphs" textLength="158" x="1204" y="680.8198">boolean hasBeenExecuted()</text><!--MD5=[7b0788963c7ebc80a526c7e9d82b2243]
class ListTournamentsCommand--><rect fill="#FEFECE" filter="url(#fpfpnsiqbn8q8)" height="48" id="ListTournamentsCommand" rx="6.5" ry="6.5" style="stroke: #A80036; stroke-width: 1.5;" width="198" x="1403" y="620"/><ellipse cx="1418" cy="636" fill="#ADD1B2" rx="11" ry="11" style="stroke: #A80036; stroke-width: 1.0;"/><path d="M1420.9688,641.6406 Q1420.3906,641.9375 1419.75,642.0781 Q1419.1094,642.2344 1418.4063,642.2344 Q1415.9063,642.2344 1414.5781,640.5938 Q1413.2656,638.9375 1413.2656,635.8125 Q1413.2656,632.6875 1414.5781,631.0313 Q1415.9063,629.375 1418.4063,629.375 Q1419.1094,629.375 1419.75,629.5313 Q1420.4063,629.6875 1420.9688,629.9844 L1420.9688,632.7031 Q1420.3438,632.125 1419.75,631.8594 Q1419.1563,631.5781 1418.5313,631.5781 Q1417.1875,631.5781 1416.5,632.6563 Q1415.8125,633.7188 1415.8125,635.8125 Q1415.8125,637.9063 1416.5,638.9844 Q1417.1875,640.0469 1418.5313,640.0469 Q1419.1563,640.0469 1419.75,639.7813 Q1420.3438,639.5 1420.9688,638.9219 L1420.9688,641.6406 Z "/><text fill="#000000" font-family="sans-serif" font-size="12" lengthAdjust="spacingAndGlyphs" textLength="166" x="1432" y="640.1543">ListTournamentsCommand</text><line style="stroke: #A80036; stroke-width: 1.5;" x1="1404" x2="1600" y1="652" y2="652"/><line style="stroke: #A80036; stroke-width: 1.5;" x1="1404" x2="1600" y1="660" y2="660"/><!--MD5=[ba99def23bf25cdcbbfb7272ea2131d9]
class LoginCommand--><rect fill="#FEFECE" filter="url(#fpfpnsiqbn8q8)" height="48" id="LoginCommand" rx="6.5" ry="6.5" style="stroke: #A80036; stroke-width: 1.5;" width="127" x="1636.5" y="620"/><ellipse cx="1651.5" cy="636" fill="#ADD1B2" rx="11" ry="11" style="stroke: #A80036; stroke-width: 1.0;"/><path d="M1654.4688,641.6406 Q1653.8906,641.9375 1653.25,642.0781 Q1652.6094,642.2344 1651.9063,642.2344 Q1649.4063,642.2344 1648.0781,640.5938 Q1646.7656,638.9375 1646.7656,635.8125 Q1646.7656,632.6875 1648.0781,631.0313 Q1649.4063,629.375 1651.9063,629.375 Q1652.6094,629.375 1653.25,629.5313 Q1653.9063,629.6875 1654.4688,629.9844 L1654.4688,632.7031 Q1653.8438,632.125 1653.25,631.8594 Q1652.6563,631.5781 1652.0313,631.5781 Q1650.6875,631.5781 1650,632.6563 Q1649.3125,633.7188 1649.3125,635.8125 Q1649.3125,637.9063 1650,638.9844 Q1650.6875,640.0469 1652.0313,640.0469 Q1652.6563,640.0469 1653.25,639.7813 Q1653.8438,639.5 1654.4688,638.9219 L1654.4688,641.6406 Z "/><text fill="#000000" font-family="sans-serif" font-size="12" lengthAdjust="spacingAndGlyphs" textLength="95" x="1665.5" y="640.1543">LoginCommand</text><line style="stroke: #A80036; stroke-width: 1.5;" x1="1637.5" x2="1762.5" y1="652" y2="652"/><line style="stroke: #A80036; stroke-width: 1.5;" x1="1637.5" x2="1762.5" y1="660" y2="660"/><!--MD5=[549358d4847e5cc1e1a6c783db6d6c19]
class LogoutCommand--><rect fill="#FEFECE" filter="url(#fpfpnsiqbn8q8)" height="48" id="LogoutCommand" rx="6.5" ry="6.5" style="stroke: #A80036; stroke-width: 1.5;" width="137" x="1798.5" y="620"/><ellipse cx="1813.5" cy="636" fill="#ADD1B2" rx="11" ry="11" style="stroke: #A80036; stroke-width: 1.0;"/><path d="M1816.4688,641.6406 Q1815.8906,641.9375 1815.25,642.0781 Q1814.6094,642.2344 1813.9063,642.2344 Q1811.4063,642.2344 1810.0781,640.5938 Q1808.7656,638.9375 1808.7656,635.8125 Q1808.7656,632.6875 1810.0781,631.0313 Q1811.4063,629.375 1813.9063,629.375 Q1814.6094,629.375 1815.25,629.5313 Q1815.9063,629.6875 1816.4688,629.9844 L1816.4688,632.7031 Q1815.8438,632.125 1815.25,631.8594 Q1814.6563,631.5781 1814.0313,631.5781 Q1812.6875,631.5781 1812,632.6563 Q1811.3125,633.7188 1811.3125,635.8125 Q1811.3125,637.9063 1812,638.9844 Q1812.6875,640.0469 1814.0313,640.0469 Q1814.6563,640.0469 1815.25,639.7813 Q1815.8438,639.5 1816.4688,638.9219 L1816.4688,641.6406 Z "/><text fill="#000000" font-family="sans-serif" font-size="12" lengthAdjust="spacingAndGlyphs" textLength="105" x="1827.5" y="640.1543">LogoutCommand</text><line style="stroke: #A80036; stroke-width: 1.5;" x1="1799.5" x2="1934.5" y1="652" y2="652"/><line style="stroke: #A80036; stroke-width: 1.5;" x1="1799.5" x2="1934.5" y1="660" y2="660"/><!--MD5=[a96594a83e2ecdc78cbf17c2ddf01934]
class Category--><rect fill="#FEFECE" filter="url(#fpfpnsiqbn8q8)" height="48" id="Category" rx="6.5" ry="6.5" style="stroke: #A80036; stroke-width: 1.5;" width="88" x="318" y="206.5"/><ellipse cx="333" cy="222.5" fill="#EB937F" rx="11" ry="11" style="stroke: #A80036; stroke-width: 1.0;"/><path d="M337.1094,228.5 L329.3906,228.5 L329.3906,216.1094 L337.1094,216.1094 L337.1094,218.2656 L331.8438,218.2656 L331.8438,220.9375 L336.6094,220.9375 L336.6094,223.0938 L331.8438,223.0938 L331.8438,226.3438 L337.1094,226.3438 L337.1094,228.5 Z "/><text fill="#000000" font-family="sans-serif" font-size="12" lengthAdjust="spacingAndGlyphs" textLength="56" x="347" y="226.6543">Category</text><line style="stroke: #A80036; stroke-width: 1.5;" x1="319" x2="405" y1="238.5" y2="238.5"/><line style="stroke: #A80036; stroke-width: 1.5;" x1="319" x2="405" y1="246.5" y2="246.5"/><!--MD5=[521817ab83e81da341a3f4b5e91bae41]
class Command--><rect fill="#FEFECE" filter="url(#fpfpnsiqbn8q8)" height="163.2422" id="Command" rx="6.5" ry="6.5" style="stroke: #A80036; stroke-width: 1.5;" width="352" x="441" y="149"/><ellipse cx="581.75" cy="165" fill="#A9DCDF" rx="11" ry="11" style="stroke: #A80036; stroke-width: 1.0;"/><path d="M581.8594,160.3438 L580.7031,165.4219 L583.0313,165.4219 L581.8594,160.3438 Z M580.375,158.1094 L583.3594,158.1094 L586.7188,170.5 L584.2656,170.5 L583.5,167.4375 L580.2188,167.4375 L579.4688,170.5 L577.0313,170.5 L580.375,158.1094 Z "/><text fill="#000000" font-family="sans-serif" font-size="12" font-style="italic" lengthAdjust="spacingAndGlyphs" textLength="62" x="602.25" y="169.1543">Command</text><line style="stroke: #A80036; stroke-width: 1.5;" x1="442" x2="792" y1="181" y2="181"/><rect fill="none" height="6" style="stroke: #C82930; stroke-width: 1.0;" width="6" x="449" y="189"/><text fill="#000000" font-family="sans-serif" font-size="11" lengthAdjust="spacingAndGlyphs" textLength="70" x="461" y="195.2104">String name</text><rect fill="none" height="6" style="stroke: #C82930; stroke-width: 1.0;" width="6" x="449" y="201.8047"/><text fill="#000000" font-family="sans-serif" font-size="11" lengthAdjust="spacingAndGlyphs" textLength="73" x="461" y="208.0151">String usage</text><rect fill="none" height="6" style="stroke: #C82930; stroke-width: 1.0;" width="6" x="449" y="214.6094"/><text fill="#000000" font-family="sans-serif" font-size="11" lengthAdjust="spacingAndGlyphs" textLength="101" x="461" y="220.8198">String description</text><line style="stroke: #A80036; stroke-width: 1.5;" x1="442" x2="792" y1="227.4141" y2="227.4141"/><ellipse cx="452" cy="238.4141" fill="#84BE84" rx="3" ry="3" style="stroke: #038048; stroke-width: 1.0;"/><text fill="#000000" font-family="sans-serif" font-size="11" lengthAdjust="spacingAndGlyphs" textLength="326" x="461" y="241.6245">Command(String name, String usage, String description)</text><ellipse cx="452" cy="251.2188" fill="#84BE84" rx="3" ry="3" style="stroke: #038048; stroke-width: 1.0;"/><text fill="#000000" font-family="sans-serif" font-size="11" font-style="italic" lengthAdjust="spacingAndGlyphs" textLength="55" x="461" y="254.4292">void run()</text><ellipse cx="452" cy="264.0234" fill="#84BE84" rx="3" ry="3" style="stroke: #038048; stroke-width: 1.0;"/><text fill="#000000" font-family="sans-serif" font-size="11" lengthAdjust="spacingAndGlyphs" textLength="233" x="461" y="267.2339">boolean matches(String commandName)</text><ellipse cx="452" cy="276.8281" fill="#84BE84" rx="3" ry="3" style="stroke: #038048; stroke-width: 1.0;"/><text fill="#000000" font-family="sans-serif" font-size="11" lengthAdjust="spacingAndGlyphs" textLength="97" x="461" y="280.0386">String getName()</text><ellipse cx="452" cy="289.6328" fill="#84BE84" rx="3" ry="3" style="stroke: #038048; stroke-width: 1.0;"/><text fill="#000000" font-family="sans-serif" font-size="11" lengthAdjust="spacingAndGlyphs" textLength="100" x="461" y="292.8433">String getUsage()</text><ellipse cx="452" cy="302.4375" fill="#84BE84" rx="3" ry="3" style="stroke: #038048; stroke-width: 1.0;"/><text fill="#000000" font-family="sans-serif" font-size="11" lengthAdjust="spacingAndGlyphs" textLength="128" x="461" y="305.6479">String getDescription()</text><!--MD5=[5f0899136ed8f523b18ed05779c24112]
class Match--><rect fill="#FEFECE" filter="url(#fpfpnsiqbn8q8)" height="53.9375" id="Match" rx="6.5" ry="6.5" style="stroke: #A80036; stroke-width: 1.5;" width="115" x="827.5" y="203.5"/><ellipse cx="842.5" cy="222.4688" fill="#ADD1B2" rx="11" ry="11" style="stroke: #A80036; stroke-width: 1.0;"/><path d="M845.4688,228.1094 Q844.8906,228.4063 844.25,228.5469 Q843.6094,228.7031 842.9063,228.7031 Q840.4063,228.7031 839.0781,227.0625 Q837.7656,225.4063 837.7656,222.2813 Q837.7656,219.1563 839.0781,217.5 Q840.4063,215.8438 842.9063,215.8438 Q843.6094,215.8438 844.25,216 Q844.9063,216.1563 845.4688,216.4531 L845.4688,219.1719 Q844.8438,218.5938 844.25,218.3281 Q843.6563,218.0469 843.0313,218.0469 Q841.6875,218.0469 841,219.125 Q840.3125,220.1875 840.3125,222.2813 Q840.3125,224.375 841,225.4531 Q841.6875,226.5156 843.0313,226.5156 Q843.6563,226.5156 844.25,226.25 Q844.8438,225.9688 845.4688,225.3906 L845.4688,228.1094 Z "/><text fill="#000000" font-family="sans-serif" font-size="12" font-style="italic" lengthAdjust="spacingAndGlyphs" textLength="87" x="854.5" y="219.6387">«deprecated»</text><text fill="#000000" font-family="sans-serif" font-size="12" lengthAdjust="spacingAndGlyphs" textLength="38" x="879" y="233.6074">Match</text><line style="stroke: #A80036; stroke-width: 1.5;" x1="828.5" x2="941.5" y1="241.4375" y2="241.4375"/><line style="stroke: #A80036; stroke-width: 1.5;" x1="828.5" x2="941.5" y1="249.4375" y2="249.4375"/><!--MD5=[bb46b92143e61272c95b3f45124f3f52]
class MatchList--><rect fill="#FEFECE" filter="url(#fpfpnsiqbn8q8)" height="53.9375" id="MatchList" rx="6.5" ry="6.5" style="stroke: #A80036; stroke-width: 1.5;" width="115" x="977.5" y="203.5"/><ellipse cx="992.5" cy="222.4688" fill="#ADD1B2" rx="11" ry="11" style="stroke: #A80036; stroke-width: 1.0;"/><path d="M995.4688,228.1094 Q994.8906,228.4063 994.25,228.5469 Q993.6094,228.7031 992.9063,228.7031 Q990.4063,228.7031 989.0781,227.0625 Q987.7656,225.4063 987.7656,222.2813 Q987.7656,219.1563 989.0781,217.5 Q990.4063,215.8438 992.9063,215.8438 Q993.6094,215.8438 994.25,216 Q994.9063,216.1563 995.4688,216.4531 L995.4688,219.1719 Q994.8438,218.5938 994.25,218.3281 Q993.6563,218.0469 993.0313,218.0469 Q991.6875,218.0469 991,219.125 Q990.3125,220.1875 990.3125,222.2813 Q990.3125,224.375 991,225.4531 Q991.6875,226.5156 993.0313,226.5156 Q993.6563,226.5156 994.25,226.25 Q994.8438,225.9688 995.4688,225.3906 L995.4688,228.1094 Z "/><text fill="#000000" font-family="sans-serif" font-size="12" font-style="italic" lengthAdjust="spacingAndGlyphs" textLength="87" x="1004.5" y="219.6387">«deprecated»</text><text fill="#000000" font-family="sans-serif" font-size="12" lengthAdjust="spacingAndGlyphs" textLength="59" x="1018.5" y="233.6074">MatchList</text><line style="stroke: #A80036; stroke-width: 1.5;" x1="978.5" x2="1091.5" y1="241.4375" y2="241.4375"/><line style="stroke: #A80036; stroke-width: 1.5;" x1="978.5" x2="1091.5" y1="249.4375" y2="249.4375"/><!--MD5=[b1b35833dc86dffc6b5d0c34dd643d10]
class Participant--><rect fill="#FEFECE" filter="url(#fpfpnsiqbn8q8)" height="48" id="Participant" rx="6.5" ry="6.5" style="stroke: #A80036; stroke-width: 1.5;" width="99" x="318.5" y="372"/><ellipse cx="333.5" cy="388" fill="#A9DCDF" rx="11" ry="11" style="stroke: #A80036; stroke-width: 1.0;"/><path d="M333.6094,383.3438 L332.4531,388.4219 L334.7813,388.4219 L333.6094,383.3438 Z M332.125,381.1094 L335.1094,381.1094 L338.4688,393.5 L336.0156,393.5 L335.25,390.4375 L331.9688,390.4375 L331.2188,393.5 L328.7813,393.5 L332.125,381.1094 Z "/><text fill="#000000" font-family="sans-serif" font-size="12" font-style="italic" lengthAdjust="spacingAndGlyphs" textLength="67" x="347.5" y="392.1543">Participant</text><line style="stroke: #A80036; stroke-width: 1.5;" x1="319.5" x2="416.5" y1="404" y2="404"/><line style="stroke: #A80036; stroke-width: 1.5;" x1="319.5" x2="416.5" y1="412" y2="412"/><!--MD5=[e7e9d4a4b293a0f260a9f36a588d10b1]
class ParticipantSet--><rect fill="#FEFECE" filter="url(#fpfpnsiqbn8q8)" height="48" id="ParticipantSet" rx="6.5" ry="6.5" style="stroke: #A80036; stroke-width: 1.5;" width="121" x="452.5" y="372"/><ellipse cx="467.5" cy="388" fill="#ADD1B2" rx="11" ry="11" style="stroke: #A80036; stroke-width: 1.0;"/><path d="M470.4688,393.6406 Q469.8906,393.9375 469.25,394.0781 Q468.6094,394.2344 467.9063,394.2344 Q465.4063,394.2344 464.0781,392.5938 Q462.7656,390.9375 462.7656,387.8125 Q462.7656,384.6875 464.0781,383.0313 Q465.4063,381.375 467.9063,381.375 Q468.6094,381.375 469.25,381.5313 Q469.9063,381.6875 470.4688,381.9844 L470.4688,384.7031 Q469.8438,384.125 469.25,383.8594 Q468.6563,383.5781 468.0313,383.5781 Q466.6875,383.5781 466,384.6563 Q465.3125,385.7188 465.3125,387.8125 Q465.3125,389.9063 466,390.9844 Q466.6875,392.0469 468.0313,392.0469 Q468.6563,392.0469 469.25,391.7813 Q469.8438,391.5 470.4688,390.9219 L470.4688,393.6406 Z "/><text fill="#000000" font-family="sans-serif" font-size="12" lengthAdjust="spacingAndGlyphs" textLength="89" x="481.5" y="392.1543">ParticipantSet</text><line style="stroke: #A80036; stroke-width: 1.5;" x1="453.5" x2="572.5" y1="404" y2="404"/><line style="stroke: #A80036; stroke-width: 1.5;" x1="453.5" x2="572.5" y1="412" y2="412"/><!--MD5=[2cb47ba637a0d19583e6199456f6ad0b]
class Player--><rect fill="#FEFECE" filter="url(#fpfpnsiqbn8q8)" height="48" id="Player" rx="6.5" ry="6.5" style="stroke: #A80036; stroke-width: 1.5;" width="70" x="609" y="372"/><ellipse cx="624" cy="388" fill="#ADD1B2" rx="11" ry="11" style="stroke: #A80036; stroke-width: 1.0;"/><path d="M626.9688,393.6406 Q626.3906,393.9375 625.75,394.0781 Q625.1094,394.2344 624.4063,394.2344 Q621.9063,394.2344 620.5781,392.5938 Q619.2656,390.9375 619.2656,387.8125 Q619.2656,384.6875 620.5781,383.0313 Q621.9063,381.375 624.4063,381.375 Q625.1094,381.375 625.75,381.5313 Q626.4063,381.6875 626.9688,381.9844 L626.9688,384.7031 Q626.3438,384.125 625.75,383.8594 Q625.1563,383.5781 624.5313,383.5781 Q623.1875,383.5781 622.5,384.6563 Q621.8125,385.7188 621.8125,387.8125 Q621.8125,389.9063 622.5,390.9844 Q623.1875,392.0469 624.5313,392.0469 Q625.1563,392.0469 625.75,391.7813 Q626.3438,391.5 626.9688,390.9219 L626.9688,393.6406 Z "/><text fill="#000000" font-family="sans-serif" font-size="12" lengthAdjust="spacingAndGlyphs" textLength="38" x="638" y="392.1543">Player</text><line style="stroke: #A80036; stroke-width: 1.5;" x1="610" x2="678" y1="404" y2="404"/><line style="stroke: #A80036; stroke-width: 1.5;" x1="610" x2="678" y1="412" y2="412"/><!--MD5=[a3638c1e5b65d287ecad7f06f5c0f212]
class Role--><rect fill="#FEFECE" filter="url(#fpfpnsiqbn8q8)" height="48" id="Role" rx="6.5" ry="6.5" style="stroke: #A80036; stroke-width: 1.5;" width="59" x="714.5" y="372"/><ellipse cx="729.5" cy="388" fill="#EB937F" rx="11" ry="11" style="stroke: #A80036; stroke-width: 1.0;"/><path d="M733.6094,394 L725.8906,394 L725.8906,381.6094 L733.6094,381.6094 L733.6094,383.7656 L728.3438,383.7656 L728.3438,386.4375 L733.1094,386.4375 L733.1094,388.5938 L728.3438,388.5938 L728.3438,391.8438 L733.6094,391.8438 L733.6094,394 Z "/><text fill="#000000" font-family="sans-serif" font-size="12" lengthAdjust="spacingAndGlyphs" textLength="27" x="743.5" y="392.1543">Role</text><line style="stroke: #A80036; stroke-width: 1.5;" x1="715.5" x2="772.5" y1="404" y2="404"/><line style="stroke: #A80036; stroke-width: 1.5;" x1="715.5" x2="772.5" y1="412" y2="412"/><!--MD5=[dfb0845b8492ffe07b1ce50e003034d7]
class Team--><rect fill="#FEFECE" filter="url(#fpfpnsiqbn8q8)" height="48" id="Team" rx="6.5" ry="6.5" style="stroke: #A80036; stroke-width: 1.5;" width="66" x="335" y="486.5"/><ellipse cx="350" cy="502.5" fill="#ADD1B2" rx="11" ry="11" style="stroke: #A80036; stroke-width: 1.0;"/><path d="M352.9688,508.1406 Q352.3906,508.4375 351.75,508.5781 Q351.1094,508.7344 350.4063,508.7344 Q347.9063,508.7344 346.5781,507.0938 Q345.2656,505.4375 345.2656,502.3125 Q345.2656,499.1875 346.5781,497.5313 Q347.9063,495.875 350.4063,495.875 Q351.1094,495.875 351.75,496.0313 Q352.4063,496.1875 352.9688,496.4844 L352.9688,499.2031 Q352.3438,498.625 351.75,498.3594 Q351.1563,498.0781 350.5313,498.0781 Q349.1875,498.0781 348.5,499.1563 Q347.8125,500.2188 347.8125,502.3125 Q347.8125,504.4063 348.5,505.4844 Q349.1875,506.5469 350.5313,506.5469 Q351.1563,506.5469 351.75,506.2813 Q352.3438,506 352.9688,505.4219 L352.9688,508.1406 Z "/><text fill="#000000" font-family="sans-serif" font-size="12" lengthAdjust="spacingAndGlyphs" textLength="34" x="364" y="506.6543">Team</text><line style="stroke: #A80036; stroke-width: 1.5;" x1="336" x2="400" y1="518.5" y2="518.5"/><line style="stroke: #A80036; stroke-width: 1.5;" x1="336" x2="400" y1="526.5" y2="526.5"/><!--MD5=[a4b4d324fd2684dbb9bd6a0eaf7882b2]
class Tournament--><rect fill="#FEFECE" filter="url(#fpfpnsiqbn8q8)" height="48" id="Tournament" rx="6.5" ry="6.5" style="stroke: #A80036; stroke-width: 1.5;" width="108" x="436" y="486.5"/><ellipse cx="451" cy="502.5" fill="#ADD1B2" rx="11" ry="11" style="stroke: #A80036; stroke-width: 1.0;"/><path d="M453.9688,508.1406 Q453.3906,508.4375 452.75,508.5781 Q452.1094,508.7344 451.4063,508.7344 Q448.9063,508.7344 447.5781,507.0938 Q446.2656,505.4375 446.2656,502.3125 Q446.2656,499.1875 447.5781,497.5313 Q448.9063,495.875 451.4063,495.875 Q452.1094,495.875 452.75,496.0313 Q453.4063,496.1875 453.9688,496.4844 L453.9688,499.2031 Q453.3438,498.625 452.75,498.3594 Q452.1563,498.0781 451.5313,498.0781 Q450.1875,498.0781 449.5,499.1563 Q448.8125,500.2188 448.8125,502.3125 Q448.8125,504.4063 449.5,505.4844 Q450.1875,506.5469 451.5313,506.5469 Q452.1563,506.5469 452.75,506.2813 Q453.3438,506 453.9688,505.4219 L453.9688,508.1406 Z "/><text fill="#000000" font-family="sans-serif" font-size="12" lengthAdjust="spacingAndGlyphs" textLength="76" x="465" y="506.6543">Tournament</text><line style="stroke: #A80036; stroke-width: 1.5;" x1="437" x2="543" y1="518.5" y2="518.5"/><line style="stroke: #A80036; stroke-width: 1.5;" x1="437" x2="543" y1="526.5" y2="526.5"/><!--MD5=[7670bbecd0ed0790a56d136b9eb70a94]
class TournamentList--><rect fill="#FEFECE" filter="url(#fpfpnsiqbn8q8)" height="48" id="TournamentList" rx="6.5" ry="6.5" style="stroke: #A80036; stroke-width: 1.5;" width="129" x="579.5" y="486.5"/><ellipse cx="594.5" cy="502.5" fill="#ADD1B2" rx="11" ry="11" style="stroke: #A80036; stroke-width: 1.0;"/><path d="M597.4688,508.1406 Q596.8906,508.4375 596.25,508.5781 Q595.6094,508.7344 594.9063,508.7344 Q592.4063,508.7344 591.0781,507.0938 Q589.7656,505.4375 589.7656,502.3125 Q589.7656,499.1875 591.0781,497.5313 Q592.4063,495.875 594.9063,495.875 Q595.6094,495.875 596.25,496.0313 Q596.9063,496.1875 597.4688,496.4844 L597.4688,499.2031 Q596.8438,498.625 596.25,498.3594 Q595.6563,498.0781 595.0313,498.0781 Q593.6875,498.0781 593,499.1563 Q592.3125,500.2188 592.3125,502.3125 Q592.3125,504.4063 593,505.4844 Q593.6875,506.5469 595.0313,506.5469 Q595.6563,506.5469 596.25,506.2813 Q596.8438,506 597.4688,505.4219 L597.4688,508.1406 Z "/><text fill="#000000" font-family="sans-serif" font-size="12" lengthAdjust="spacingAndGlyphs" textLength="97" x="608.5" y="506.6543">TournamentList</text><line style="stroke: #A80036; stroke-width: 1.5;" x1="580.5" x2="707.5" y1="518.5" y2="518.5"/><line style="stroke: #A80036; stroke-width: 1.5;" x1="580.5" x2="707.5" y1="526.5" y2="526.5"/><!--MD5=[3fd616f346a44cd59a91eb10b19e157c]
class User--><rect fill="#FEFECE" filter="url(#fpfpnsiqbn8q8)" height="48" id="User" rx="6.5" ry="6.5" style="stroke: #A80036; stroke-width: 1.5;" width="61" x="743.5" y="486.5"/><ellipse cx="758.5" cy="502.5" fill="#ADD1B2" rx="11" ry="11" style="stroke: #A80036; stroke-width: 1.0;"/><path d="M761.4688,508.1406 Q760.8906,508.4375 760.25,508.5781 Q759.6094,508.7344 758.9063,508.7344 Q756.4063,508.7344 755.0781,507.0938 Q753.7656,505.4375 753.7656,502.3125 Q753.7656,499.1875 755.0781,497.5313 Q756.4063,495.875 758.9063,495.875 Q759.6094,495.875 760.25,496.0313 Q760.9063,496.1875 761.4688,496.4844 L761.4688,499.2031 Q760.8438,498.625 760.25,498.3594 Q759.6563,498.0781 759.0313,498.0781 Q757.6875,498.0781 757,499.1563 Q756.3125,500.2188 756.3125,502.3125 Q756.3125,504.4063 757,505.4844 Q757.6875,506.5469 759.0313,506.5469 Q759.6563,506.5469 760.25,506.2813 Q760.8438,506 761.4688,505.4219 L761.4688,508.1406 Z "/><text fill="#000000" font-family="sans-serif" font-size="12" lengthAdjust="spacingAndGlyphs" textLength="29" x="772.5" y="506.6543">User</text><line style="stroke: #A80036; stroke-width: 1.5;" x1="744.5" x2="803.5" y1="518.5" y2="518.5"/><line style="stroke: #A80036; stroke-width: 1.5;" x1="744.5" x2="803.5" y1="526.5" y2="526.5"/><!--MD5=[3124add794188d75953438ffc4835d72]
class CLI--><rect fill="#FEFECE" filter="url(#fpfpnsiqbn8q8)" height="48" id="CLI" rx="6.5" ry="6.5" style="stroke: #A80036; stroke-width: 1.5;" width="49" x="1251.5" y="762"/><ellipse cx="1266.5" cy="778" fill="#ADD1B2" rx="11" ry="11" style="stroke: #A80036; stroke-width: 1.0;"/><path d="M1269.4688,783.6406 Q1268.8906,783.9375 1268.25,784.0781 Q1267.6094,784.2344 1266.9063,784.2344 Q1264.4063,784.2344 1263.0781,782.5938 Q1261.7656,780.9375 1261.7656,777.8125 Q1261.7656,774.6875 1263.0781,773.0313 Q1264.4063,771.375 1266.9063,771.375 Q1267.6094,771.375 1268.25,771.5313 Q1268.9063,771.6875 1269.4688,771.9844 L1269.4688,774.7031 Q1268.8438,774.125 1268.25,773.8594 Q1267.6563,773.5781 1267.0313,773.5781 Q1265.6875,773.5781 1265,774.6563 Q1264.3125,775.7188 1264.3125,777.8125 Q1264.3125,779.9063 1265,780.9844 Q1265.6875,782.0469 1267.0313,782.0469 Q1267.6563,782.0469 1268.25,781.7813 Q1268.8438,781.5 1269.4688,780.9219 L1269.4688,783.6406 Z "/><text fill="#000000" font-family="sans-serif" font-size="12" lengthAdjust="spacingAndGlyphs" textLength="17" x="1280.5" y="782.1543">CLI</text><line style="stroke: #A80036; stroke-width: 1.5;" x1="1252.5" x2="1299.5" y1="794" y2="794"/><line style="stroke: #A80036; stroke-width: 1.5;" x1="1252.5" x2="1299.5" y1="802" y2="802"/><!--MD5=[c565ad57ffb732561f3f84fb6a1fbba9]
class CommandView--><rect fill="#FEFECE" filter="url(#fpfpnsiqbn8q8)" height="48" id="CommandView" rx="6.5" ry="6.5" style="stroke: #A80036; stroke-width: 1.5;" width="122" x="1336" y="762"/><ellipse cx="1351" cy="778" fill="#ADD1B2" rx="11" ry="11" style="stroke: #A80036; stroke-width: 1.0;"/><path d="M1353.9688,783.6406 Q1353.3906,783.9375 1352.75,784.0781 Q1352.1094,784.2344 1351.4063,784.2344 Q1348.9063,784.2344 1347.5781,782.5938 Q1346.2656,780.9375 1346.2656,777.8125 Q1346.2656,774.6875 1347.5781,773.0313 Q1348.9063,771.375 1351.4063,771.375 Q1352.1094,771.375 1352.75,771.5313 Q1353.4063,771.6875 1353.9688,771.9844 L1353.9688,774.7031 Q1353.3438,774.125 1352.75,773.8594 Q1352.1563,773.5781 1351.5313,773.5781 Q1350.1875,773.5781 1349.5,774.6563 Q1348.8125,775.7188 1348.8125,777.8125 Q1348.8125,779.9063 1349.5,780.9844 Q1350.1875,782.0469 1351.5313,782.0469 Q1352.1563,782.0469 1352.75,781.7813 Q1353.3438,781.5 1353.9688,780.9219 L1353.9688,783.6406 Z "/><text fill="#000000" font-family="sans-serif" font-size="12" lengthAdjust="spacingAndGlyphs" textLength="90" x="1365" y="782.1543">CommandView</text><line style="stroke: #A80036; stroke-width: 1.5;" x1="1337" x2="1457" y1="794" y2="794"/><line style="stroke: #A80036; stroke-width: 1.5;" x1="1337" x2="1457" y1="802" y2="802"/><!--MD5=[b8cfd8c4119a3b0a7a46bfc5fc780f85]
class Error--><rect fill="#FEFECE" filter="url(#fpfpnsiqbn8q8)" height="48" id="Error" rx="6.5" ry="6.5" style="stroke: #A80036; stroke-width: 1.5;" width="63" x="1493.5" y="762"/><ellipse cx="1508.5" cy="778" fill="#EB937F" rx="11" ry="11" style="stroke: #A80036; stroke-width: 1.0;"/><path d="M1512.6094,784 L1504.8906,784 L1504.8906,771.6094 L1512.6094,771.6094 L1512.6094,773.7656 L1507.3438,773.7656 L1507.3438,776.4375 L1512.1094,776.4375 L1512.1094,778.5938 L1507.3438,778.5938 L1507.3438,781.8438 L1512.6094,781.8438 L1512.6094,784 Z "/><text fill="#000000" font-family="sans-serif" font-size="12" lengthAdjust="spacingAndGlyphs" textLength="31" x="1522.5" y="782.1543">Error</text><line style="stroke: #A80036; stroke-width: 1.5;" x1="1494.5" x2="1555.5" y1="794" y2="794"/><line style="stroke: #A80036; stroke-width: 1.5;" x1="1494.5" x2="1555.5" y1="802" y2="802"/><!--MD5=[bea5b0d46523efab5ea1c1d339f396f0]
class Message--><rect fill="#FEFECE" filter="url(#fpfpnsiqbn8q8)" height="48" id="Message" rx="6.5" ry="6.5" style="stroke: #A80036; stroke-width: 1.5;" width="88" x="1232" y="870"/><ellipse cx="1247" cy="886" fill="#EB937F" rx="11" ry="11" style="stroke: #A80036; stroke-width: 1.0;"/><path d="M1251.1094,892 L1243.3906,892 L1243.3906,879.6094 L1251.1094,879.6094 L1251.1094,881.7656 L1245.8438,881.7656 L1245.8438,884.4375 L1250.6094,884.4375 L1250.6094,886.5938 L1245.8438,886.5938 L1245.8438,889.8438 L1251.1094,889.8438 L1251.1094,892 Z "/><text fill="#000000" font-family="sans-serif" font-size="12" lengthAdjust="spacingAndGlyphs" textLength="56" x="1261" y="890.1543">Message</text><line style="stroke: #A80036; stroke-width: 1.5;" x1="1233" x2="1319" y1="902" y2="902"/><line style="stroke: #A80036; stroke-width: 1.5;" x1="1233" x2="1319" y1="910" y2="910"/><!--MD5=[e89201c003afadeaa92931e7ea9a4c4a]
class ParticipantSetView--><rect fill="#FEFECE" filter="url(#fpfpnsiqbn8q8)" height="48" id="ParticipantSetView" rx="6.5" ry="6.5" style="stroke: #A80036; stroke-width: 1.5;" width="149" x="1355.5" y="870"/><ellipse cx="1370.5" cy="886" fill="#ADD1B2" rx="11" ry="11" style="stroke: #A80036; stroke-width: 1.0;"/><path d="M1373.4688,891.6406 Q1372.8906,891.9375 1372.25,892.0781 Q1371.6094,892.2344 1370.9063,892.2344 Q1368.4063,892.2344 1367.0781,890.5938 Q1365.7656,888.9375 1365.7656,885.8125 Q1365.7656,882.6875 1367.0781,881.0313 Q1368.4063,879.375 1370.9063,879.375 Q1371.6094,879.375 1372.25,879.5313 Q1372.9063,879.6875 1373.4688,879.9844 L1373.4688,882.7031 Q1372.8438,882.125 1372.25,881.8594 Q1371.6563,881.5781 1371.0313,881.5781 Q1369.6875,881.5781 1369,882.6563 Q1368.3125,883.7188 1368.3125,885.8125 Q1368.3125,887.9063 1369,888.9844 Q1369.6875,890.0469 1371.0313,890.0469 Q1371.6563,890.0469 1372.25,889.7813 Q1372.8438,889.5 1373.4688,888.9219 L1373.4688,891.6406 Z "/><text fill="#000000" font-family="sans-serif" font-size="12" lengthAdjust="spacingAndGlyphs" textLength="117" x="1384.5" y="890.1543">ParticipantSetView</text><line style="stroke: #A80036; stroke-width: 1.5;" x1="1356.5" x2="1503.5" y1="902" y2="902"/><line style="stroke: #A80036; stroke-width: 1.5;" x1="1356.5" x2="1503.5" y1="910" y2="910"/><!--MD5=[ad8757453c5d48be8b0e3222ff3face1]
class TournamentListView--><rect fill="#FEFECE" filter="url(#fpfpnsiqbn8q8)" height="48" id="TournamentListView" rx="6.5" ry="6.5" style="stroke: #A80036; stroke-width: 1.5;" width="157" x="1539.5" y="870"/><ellipse cx="1554.5" cy="886" fill="#ADD1B2" rx="11" ry="11" style="stroke: #A80036; stroke-width: 1.0;"/><path d="M1557.4688,891.6406 Q1556.8906,891.9375 1556.25,892.0781 Q1555.6094,892.2344 1554.9063,892.2344 Q1552.4063,892.2344 1551.0781,890.5938 Q1549.7656,888.9375 1549.7656,885.8125 Q1549.7656,882.6875 1551.0781,881.0313 Q1552.4063,879.375 1554.9063,879.375 Q1555.6094,879.375 1556.25,879.5313 Q1556.9063,879.6875 1557.4688,879.9844 L1557.4688,882.7031 Q1556.8438,882.125 1556.25,881.8594 Q1555.6563,881.5781 1555.0313,881.5781 Q1553.6875,881.5781 1553,882.6563 Q1552.3125,883.7188 1552.3125,885.8125 Q1552.3125,887.9063 1553,888.9844 Q1553.6875,890.0469 1555.0313,890.0469 Q1555.6563,890.0469 1556.25,889.7813 Q1556.8438,889.5 1557.4688,888.9219 L1557.4688,891.6406 Z "/><text fill="#000000" font-family="sans-serif" font-size="12" lengthAdjust="spacingAndGlyphs" textLength="125" x="1568.5" y="890.1543">TournamentListView</text><line style="stroke: #A80036; stroke-width: 1.5;" x1="1540.5" x2="1695.5" y1="902" y2="902"/><line style="stroke: #A80036; stroke-width: 1.5;" x1="1540.5" x2="1695.5" y1="910" y2="910"/><!--MD5=[442558ebc656c74aacfcf261b0b4a150]
class SportsManagementSystem--><rect fill="#FEFECE" filter="url(#fpfpnsiqbn8q8)" height="86.4141" id="SportsManagementSystem" rx="6.5" ry="6.5" style="stroke: #A80036; stroke-width: 1.5;" width="200" x="62" y="187.5"/><ellipse cx="77" cy="203.5" fill="#ADD1B2" rx="11" ry="11" style="stroke: #A80036; stroke-width: 1.0;"/><path d="M79.9688,209.1406 Q79.3906,209.4375 78.75,209.5781 Q78.1094,209.7344 77.4063,209.7344 Q74.9063,209.7344 73.5781,208.0938 Q72.2656,206.4375 72.2656,203.3125 Q72.2656,200.1875 73.5781,198.5313 Q74.9063,196.875 77.4063,196.875 Q78.1094,196.875 78.75,197.0313 Q79.4063,197.1875 79.9688,197.4844 L79.9688,200.2031 Q79.3438,199.625 78.75,199.3594 Q78.1563,199.0781 77.5313,199.0781 Q76.1875,199.0781 75.5,200.1563 Q74.8125,201.2188 74.8125,203.3125 Q74.8125,205.4063 75.5,206.4844 Q76.1875,207.5469 77.5313,207.5469 Q78.1563,207.5469 78.75,207.2813 Q79.3438,207 79.9688,206.4219 L79.9688,209.1406 Z "/><text fill="#000000" font-family="sans-serif" font-size="12" lengthAdjust="spacingAndGlyphs" textLength="168" x="91" y="207.6543">SportsManagementSystem</text><line style="stroke: #A80036; stroke-width: 1.5;" x1="63" x2="261" y1="219.5" y2="219.5"/><line style="stroke: #A80036; stroke-width: 1.5;" x1="63" x2="261" y1="227.5" y2="227.5"/><ellipse cx="73" cy="238.5" fill="#84BE84" rx="3" ry="3" style="stroke: #038048; stroke-width: 1.0;"/><text fill="#000000" font-family="sans-serif" font-size="11" lengthAdjust="spacingAndGlyphs" text-decoration="underline" textLength="135" x="82" y="241.7104">void main(String[] args)</text><ellipse cx="73" cy="251.3047" fill="#84BE84" rx="3" ry="3" style="stroke: #038048; stroke-width: 1.0;"/><text fill="#000000" font-family="sans-serif" font-size="11" lengthAdjust="spacingAndGlyphs" textLength="62" x="82" y="254.5151">void start()</text><ellipse cx="73" cy="264.1094" fill="#84BE84" rx="3" ry="3" style="stroke: #038048; stroke-width: 1.0;"/><text fill="#000000" font-family="sans-serif" font-size="11" lengthAdjust="spacingAndGlyphs" textLength="144" x="82" y="267.3198">void pullInitialData(CLI cli)</text><!--MD5=[e0eb66a7f0b189e826324a395b8da166]
link AddPlayerToTeamCommand to CreatePlayerCommand--><!--MD5=[68efa302ee4da3541fa6e343d64730a5]
link CreatePlayerCommand to CreateTeamCommand--><!--MD5=[1006e827e74d5cc45f84afb792ce9fde]
link CreateTeamCommand to CreateTournamentCommand--><!--MD5=[4083132508921921c489c05cd5f1ae48]
link AddPlayerToTeamCommand to DeletePlayerCommand--><!--MD5=[10e983c4d1d5406a1e53a6c9adee2125]
link DeletePlayerCommand to DeleteTeamCommand--><!--MD5=[4a931bc833f24d0d7d30b0e07f1fbb14]
link DeleteTeamCommand to DeleteTournamentCommand--><!--MD5=[4c648e63f1cd3c41d32c7446ab5f4ebf]
link DeleteTournamentCommand to RemovePlayerFromTeamCommand--><!--MD5=[ecb9c8da959b231da567eb24adfbe7b5]
link DeletePlayerCommand to TournamentMatchmakingCommand--><!--MD5=[d4b5f6d0244fb1b04359a4cb94e5cac6]
link TournamentMatchmakingCommand to AddCurrentToTournamentCommand--><!--MD5=[2cae0cf924c306f5f7e5fc9643ee4a25]
link AddCurrentToTournamentCommand to RemoveCurrentFromTournamentCommand--><!--MD5=[86e807b61db6ffb1caaa9695575b09bf]
link RemoveCurrentFromTournamentCommand to ShowStatisticsCommand--><!--MD5=[1e8e51a69756f4f61b23f10483b6c74c]
link TournamentMatchmakingCommand to ExitCommand--><!--MD5=[53f0d8e8bf942c05738be13c32548039]
link ExitCommand to ListTournamentsCommand--><!--MD5=[7f5a1d9e931da1d8e9b7f8dcaa0951fe]
link ListTournamentsCommand to LoginCommand--><!--MD5=[876be2ad101c61cb98605d0bd7fd915f]
link LoginCommand to LogoutCommand--><!--MD5=[e6247c76d23b1d4571a95f847c1615eb]
link Category to Command--><!--MD5=[f1388e2a338100d8d6aa902f984defb2]
link Command to Match--><!--MD5=[a373396d681ea75cb6d84e42998d1500]
link Match to MatchList--><!--MD5=[da4e0ec24ef687bb3e2fac162d5cafc7]
link Category to Participant--><!--MD5=[feaa868b583d9e848f34de84b07cdb3c]
link Participant to ParticipantSet--><!--MD5=[2d6751c04ead3a77cd3fcae1c3f78922]
link ParticipantSet to Player--><!--MD5=[e485ea5ff355d55126428d0bf97c6d70]
link Player to Role--><!--MD5=[8412ee40508a836001b962b1d040d333]
link Participant to Team--><!--MD5=[0d19528869bea1b8174ff9dae3c1b17d]
link Team to Tournament--><!--MD5=[fd015459a89c1705d1f67d0e4df9bf3d]
link Tournament to TournamentList--><!--MD5=[f9530dbff151bf0cf47a76242735d87c]
link TournamentList to User--><!--MD5=[a7b8a1c9f1c2c55b6829a60529b189ac]
link CLI to CommandView--><!--MD5=[1f75e5d491aa0839ba7ddb77c0c3ed8e]
link CommandView to Error--><!--MD5=[06321bc62a5c513b322c170f96f6d8be]
link CLI to Message--><!--MD5=[3b157f2c04becc467aaec339a1ca3e53]
link Message to ParticipantSetView--><!--MD5=[e4e5fa2ad5423ff4f39d358ae3903605]
link ParticipantSetView to TournamentListView--><!--MD5=[479bdc786402ba09c2d35ae74ca34db7]
link CreateTournamentCommand to Category--><!--MD5=[de961a8ba340cb0c4aa52b1023b823e3]
link ExitCommand to CLI--><!--MD5=[f89642c0cfbe20b0ea5fd5cf48ab6d87]
@startuml

set separator ,
skinparam roundcorner 13
skinparam backgroundcolor #FFE299

package src.main.java.org.example {
    package commands {
        class AddPlayerToTeamCommand
        class CreatePlayerCommand
        class CreateTeamCommand
        class CreateTournamentCommand
        class DeletePlayerCommand
        class DeleteTeamCommand
        class DeleteTournamentCommand
        class RemovePlayerFromTeamCommand
        class TournamentMatchmakingCommand
        class AddCurrentToTournamentCommand
        class RemoveCurrentFromTournamentCommand
        class ShowStatisticsCommand
        class ExitCommand
        class ListTournamentsCommand
        class LoginCommand
        class LogoutCommand
    }

    package models {
        enum Category
        abstract Command
        class Match <<deprecated>>
        class MatchList <<deprecated>>
        abstract Participant
        class ParticipantSet
        class Player
        enum Role
        class Team
        class Tournament
        class TournamentList
        class User
    }

    package views {
        class CLI
        class CommandView
        enum Error
        enum Message
        class ParticipantSetView
        class TournamentListView
    }

    package app {
        class SportsManagementSystem
    }
}


SportsManagementSystem : + {static} void main(String[] args)
SportsManagementSystem : + void start()
SportsManagementSystem : + void pullInitialData(CLI cli)

Command : - String name
Command : - String usage
Command : - String description
Command : + Command(String name, String usage, String description)
Command : + {abstract} void run()
Command : + boolean matches(String commandName)
Command : + String getName()
Command : + String getUsage()
Command : + String getDescription()

CreatePlayerCommand : + CreatePlayerCommand(ParticipantSet participants)

ShowStatisticsCommand : + ShowStatisticsCommand(ParticipantSet participants)

ExitCommand : - boolean executed
ExitCommand : + ExitCommand()
ExitCommand : + boolean hasBeenExecuted()

@enduml

PlantUML version 1.2020.02(Sun Mar 01 11:22:07 CET 2020)
(GPL source distribution)
Java Runtime: OpenJDK Runtime Environment
JVM: OpenJDK 64-Bit Server VM
Java Version: 21.0.5+11-Ubuntu-1ubuntu124.04
Operating System: Linux
Default Encoding: UTF-8
Language: en
Country: US
--></g></svg>