<?xml version="1.0" encoding="UTF-8" standalone="no"?><svg xmlns="http://www.w3.org/2000/svg" xmlns:xlink="http://www.w3.org/1999/xlink" contentScriptType="application/ecmascript" contentStyleType="text/css" height="1082px" preserveAspectRatio="none" style="width:3446px;height:1082px;background:#FFE299;" version="1.1" viewBox="0 0 3446 1082" width="3446px" zoomAndPan="magnify"><defs><filter height="300%" id="f65r9brx92sa6" width="300%" x="-1" y="-1"><feGaussianBlur result="blurOut" stdDeviation="2.0"/><feColorMatrix in="blurOut" result="blurOut2" type="matrix" values="0 0 0 0 0 0 0 0 0 0 0 0 0 0 0 0 0 0 .4 0"/><feOffset dx="4.0" dy="4.0" in="blurOut2" result="blurOut3"/><feBlend in="SourceGraphic" in2="blurOut3" mode="normal"/></filter></defs><g><!--MD5=[31527aabf2c1c1d368a74a3a7f6fbbff]
cluster src.main.java.org.example--><polygon fill="#FFE299" filter="url(#f65r9brx92sa6)" points="215.5,75,427.5,75,434.5,97.2969,3287.5,97.2969,3287.5,1070,215.5,1070,215.5,75" style="stroke: #000000; stroke-width: 1.5;"/><line style="stroke: #000000; stroke-width: 1.5;" x1="215.5" x2="434.5" y1="97.2969" y2="97.2969"/><text fill="#000000" font-family="sans-serif" font-size="14" font-weight="bold" lengthAdjust="spacingAndGlyphs" textLength="206" x="219.5" y="89.9951">src.main.java.org.example</text><!--MD5=[82e865073170c2da8a76a939041dabe8]
cluster commands--><polygon fill="#FFE299" filter="url(#f65r9brx92sa6)" points="1460.5,449,1551.5,449,1558.5,471.2969,3263.5,471.2969,3263.5,815,1460.5,815,1460.5,449" style="stroke: #000000; stroke-width: 1.5;"/><line style="stroke: #000000; stroke-width: 1.5;" x1="1460.5" x2="1558.5" y1="471.2969" y2="471.2969"/><text fill="#000000" font-family="sans-serif" font-size="14" font-weight="bold" lengthAdjust="spacingAndGlyphs" textLength="85" x="1464.5" y="463.9951">commands</text><!--MD5=[a60570e4b426f702ccbb0d459e3b9417]
cluster models--><polygon fill="#FFE299" filter="url(#f65r9brx92sa6)" points="495.5,118,558.5,118,565.5,140.2969,1436.5,140.2969,1436.5,567,495.5,567,495.5,118" style="stroke: #000000; stroke-width: 1.5;"/><line style="stroke: #000000; stroke-width: 1.5;" x1="495.5" x2="565.5" y1="140.2969" y2="140.2969"/><text fill="#000000" font-family="sans-serif" font-size="14" font-weight="bold" lengthAdjust="spacingAndGlyphs" textLength="57" x="499.5" y="132.9951">models</text><!--MD5=[e2a75efa8a0f57c2afae8bf75386f79c]
cluster views--><polygon fill="#FFE299" filter="url(#f65r9brx92sa6)" points="840.5,839,892.5,839,899.5,861.2969,1301.5,861.2969,1301.5,1046,840.5,1046,840.5,839" style="stroke: #000000; stroke-width: 1.5;"/><line style="stroke: #000000; stroke-width: 1.5;" x1="840.5" x2="899.5" y1="861.2969" y2="861.2969"/><text fill="#000000" font-family="sans-serif" font-size="14" font-weight="bold" lengthAdjust="spacingAndGlyphs" textLength="46" x="844.5" y="853.9951">views</text><!--MD5=[d5ac3844f66b12d9e08170e47495e096]
cluster app--><polygon fill="#FFE299" filter="url(#f65r9brx92sa6)" points="239.5,156.5,274.5,156.5,281.5,178.7969,471.5,178.7969,471.5,293.5,239.5,293.5,239.5,156.5" style="stroke: #000000; stroke-width: 1.5;"/><line style="stroke: #000000; stroke-width: 1.5;" x1="239.5" x2="281.5" y1="178.7969" y2="178.7969"/><text fill="#000000" font-family="sans-serif" font-size="14" font-weight="bold" lengthAdjust="spacingAndGlyphs" textLength="29" x="243.5" y="171.4951">app</text><!--MD5=[80098cfe57bf01eaa26ee1222e5e22f9]
class AddPlayerToTeamCommand--><rect fill="#FEFECE" filter="url(#f65r9brx92sa6)" height="48" id="AddPlayerToTeamCommand" rx="6.5" ry="6.5" style="stroke: #A80036; stroke-width: 1.5;" width="205" x="2417" y="503"/><ellipse cx="2432" cy="519" fill="#ADD1B2" rx="11" ry="11" style="stroke: #A80036; stroke-width: 1.0;"/><path d="M2434.9688,524.6406 Q2434.3906,524.9375 2433.75,525.0781 Q2433.1094,525.2344 2432.4063,525.2344 Q2429.9063,525.2344 2428.5781,523.5938 Q2427.2656,521.9375 2427.2656,518.8125 Q2427.2656,515.6875 2428.5781,514.0313 Q2429.9063,512.375 2432.4063,512.375 Q2433.1094,512.375 2433.75,512.5313 Q2434.4063,512.6875 2434.9688,512.9844 L2434.9688,515.7031 Q2434.3438,515.125 2433.75,514.8594 Q2433.1563,514.5781 2432.5313,514.5781 Q2431.1875,514.5781 2430.5,515.6563 Q2429.8125,516.7188 2429.8125,518.8125 Q2429.8125,520.9063 2430.5,521.9844 Q2431.1875,523.0469 2432.5313,523.0469 Q2433.1563,523.0469 2433.75,522.7813 Q2434.3438,522.5 2434.9688,521.9219 L2434.9688,524.6406 Z "/><text fill="#000000" font-family="sans-serif" font-size="12" lengthAdjust="spacingAndGlyphs" textLength="173" x="2446" y="523.1543">AddPlayerToTeamCommand</text><line style="stroke: #A80036; stroke-width: 1.5;" x1="2418" x2="2621" y1="535" y2="535"/><line style="stroke: #A80036; stroke-width: 1.5;" x1="2418" x2="2621" y1="543" y2="543"/><!--MD5=[5deacb01d1025804fde4fa369e22d838]
class CreatePlayerCommand--><rect fill="#FEFECE" filter="url(#f65r9brx92sa6)" height="60.8047" id="CreatePlayerCommand" rx="6.5" ry="6.5" style="stroke: #A80036; stroke-width: 1.5;" width="315" x="1685" y="496.5"/><ellipse cx="1767.25" cy="512.5" fill="#ADD1B2" rx="11" ry="11" style="stroke: #A80036; stroke-width: 1.0;"/><path d="M1770.2188,518.1406 Q1769.6406,518.4375 1769,518.5781 Q1768.3594,518.7344 1767.6563,518.7344 Q1765.1563,518.7344 1763.8281,517.0938 Q1762.5156,515.4375 1762.5156,512.3125 Q1762.5156,509.1875 1763.8281,507.5313 Q1765.1563,505.875 1767.6563,505.875 Q1768.3594,505.875 1769,506.0313 Q1769.6563,506.1875 1770.2188,506.4844 L1770.2188,509.2031 Q1769.5938,508.625 1769,508.3594 Q1768.4063,508.0781 1767.7813,508.0781 Q1766.4375,508.0781 1765.75,509.1563 Q1765.0625,510.2188 1765.0625,512.3125 Q1765.0625,514.4063 1765.75,515.4844 Q1766.4375,516.5469 1767.7813,516.5469 Q1768.4063,516.5469 1769,516.2813 Q1769.5938,516 1770.2188,515.4219 L1770.2188,518.1406 Z "/><text fill="#000000" font-family="sans-serif" font-size="12" lengthAdjust="spacingAndGlyphs" textLength="142" x="1787.75" y="516.6543">CreatePlayerCommand</text><line style="stroke: #A80036; stroke-width: 1.5;" x1="1686" x2="1999" y1="528.5" y2="528.5"/><line style="stroke: #A80036; stroke-width: 1.5;" x1="1686" x2="1999" y1="536.5" y2="536.5"/><ellipse cx="1696" cy="547.5" fill="#84BE84" rx="3" ry="3" style="stroke: #038048; stroke-width: 1.0;"/><text fill="#000000" font-family="sans-serif" font-size="11" lengthAdjust="spacingAndGlyphs" textLength="289" x="1705" y="550.7104">CreatePlayerCommand(ParticipantSet participants)</text><!--MD5=[f944070abb8f1aa2cf3cd6072c30bed1]
class CreateTeamCommand--><rect fill="#FEFECE" filter="url(#f65r9brx92sa6)" height="48" id="CreateTeamCommand" rx="6.5" ry="6.5" style="stroke: #A80036; stroke-width: 1.5;" width="170" x="2657.5" y="503"/><ellipse cx="2672.5" cy="519" fill="#ADD1B2" rx="11" ry="11" style="stroke: #A80036; stroke-width: 1.0;"/><path d="M2675.4688,524.6406 Q2674.8906,524.9375 2674.25,525.0781 Q2673.6094,525.2344 2672.9063,525.2344 Q2670.4063,525.2344 2669.0781,523.5938 Q2667.7656,521.9375 2667.7656,518.8125 Q2667.7656,515.6875 2669.0781,514.0313 Q2670.4063,512.375 2672.9063,512.375 Q2673.6094,512.375 2674.25,512.5313 Q2674.9063,512.6875 2675.4688,512.9844 L2675.4688,515.7031 Q2674.8438,515.125 2674.25,514.8594 Q2673.6563,514.5781 2673.0313,514.5781 Q2671.6875,514.5781 2671,515.6563 Q2670.3125,516.7188 2670.3125,518.8125 Q2670.3125,520.9063 2671,521.9844 Q2671.6875,523.0469 2673.0313,523.0469 Q2673.6563,523.0469 2674.25,522.7813 Q2674.8438,522.5 2675.4688,521.9219 L2675.4688,524.6406 Z "/><text fill="#000000" font-family="sans-serif" font-size="12" lengthAdjust="spacingAndGlyphs" textLength="138" x="2686.5" y="523.1543">CreateTeamCommand</text><line style="stroke: #A80036; stroke-width: 1.5;" x1="2658.5" x2="2826.5" y1="535" y2="535"/><line style="stroke: #A80036; stroke-width: 1.5;" x1="2658.5" x2="2826.5" y1="543" y2="543"/><!--MD5=[ed2b5fa772bafc461a069e860b8fc18f]
class CreateTournamentCommand--><rect fill="#FEFECE" filter="url(#f65r9brx92sa6)" height="48" id="CreateTournamentCommand" rx="6.5" ry="6.5" style="stroke: #A80036; stroke-width: 1.5;" width="212" x="2862.5" y="503"/><ellipse cx="2877.5" cy="519" fill="#ADD1B2" rx="11" ry="11" style="stroke: #A80036; stroke-width: 1.0;"/><path d="M2880.4688,524.6406 Q2879.8906,524.9375 2879.25,525.0781 Q2878.6094,525.2344 2877.9063,525.2344 Q2875.4063,525.2344 2874.0781,523.5938 Q2872.7656,521.9375 2872.7656,518.8125 Q2872.7656,515.6875 2874.0781,514.0313 Q2875.4063,512.375 2877.9063,512.375 Q2878.6094,512.375 2879.25,512.5313 Q2879.9063,512.6875 2880.4688,512.9844 L2880.4688,515.7031 Q2879.8438,515.125 2879.25,514.8594 Q2878.6563,514.5781 2878.0313,514.5781 Q2876.6875,514.5781 2876,515.6563 Q2875.3125,516.7188 2875.3125,518.8125 Q2875.3125,520.9063 2876,521.9844 Q2876.6875,523.0469 2878.0313,523.0469 Q2878.6563,523.0469 2879.25,522.7813 Q2879.8438,522.5 2880.4688,521.9219 L2880.4688,524.6406 Z "/><text fill="#000000" font-family="sans-serif" font-size="12" lengthAdjust="spacingAndGlyphs" textLength="180" x="2891.5" y="523.1543">CreateTournamentCommand</text><line style="stroke: #A80036; stroke-width: 1.5;" x1="2863.5" x2="3073.5" y1="535" y2="535"/><line style="stroke: #A80036; stroke-width: 1.5;" x1="2863.5" x2="3073.5" y1="543" y2="543"/><!--MD5=[79b5f5a601a00d56d6a2ee754a1dd6dc]
class DeletePlayerCommand--><rect fill="#FEFECE" filter="url(#f65r9brx92sa6)" height="48" id="DeletePlayerCommand" rx="6.5" ry="6.5" style="stroke: #A80036; stroke-width: 1.5;" width="173" x="1477" y="503"/><ellipse cx="1492" cy="519" fill="#ADD1B2" rx="11" ry="11" style="stroke: #A80036; stroke-width: 1.0;"/><path d="M1494.9688,524.6406 Q1494.3906,524.9375 1493.75,525.0781 Q1493.1094,525.2344 1492.4063,525.2344 Q1489.9063,525.2344 1488.5781,523.5938 Q1487.2656,521.9375 1487.2656,518.8125 Q1487.2656,515.6875 1488.5781,514.0313 Q1489.9063,512.375 1492.4063,512.375 Q1493.1094,512.375 1493.75,512.5313 Q1494.4063,512.6875 1494.9688,512.9844 L1494.9688,515.7031 Q1494.3438,515.125 1493.75,514.8594 Q1493.1563,514.5781 1492.5313,514.5781 Q1491.1875,514.5781 1490.5,515.6563 Q1489.8125,516.7188 1489.8125,518.8125 Q1489.8125,520.9063 1490.5,521.9844 Q1491.1875,523.0469 1492.5313,523.0469 Q1493.1563,523.0469 1493.75,522.7813 Q1494.3438,522.5 1494.9688,521.9219 L1494.9688,524.6406 Z "/><text fill="#000000" font-family="sans-serif" font-size="12" lengthAdjust="spacingAndGlyphs" textLength="141" x="1506" y="523.1543">DeletePlayerCommand</text><line style="stroke: #A80036; stroke-width: 1.5;" x1="1478" x2="1649" y1="535" y2="535"/><line style="stroke: #A80036; stroke-width: 1.5;" x1="1478" x2="1649" y1="543" y2="543"/><!--MD5=[c117f14b7b80dc28711b232251e20a79]
class DeleteTeamCommand--><rect fill="#FEFECE" filter="url(#f65r9brx92sa6)" height="48" id="DeleteTeamCommand" rx="6.5" ry="6.5" style="stroke: #A80036; stroke-width: 1.5;" width="169" x="2038" y="630"/><ellipse cx="2053" cy="646" fill="#ADD1B2" rx="11" ry="11" style="stroke: #A80036; stroke-width: 1.0;"/><path d="M2055.9688,651.6406 Q2055.3906,651.9375 2054.75,652.0781 Q2054.1094,652.2344 2053.4063,652.2344 Q2050.9063,652.2344 2049.5781,650.5938 Q2048.2656,648.9375 2048.2656,645.8125 Q2048.2656,642.6875 2049.5781,641.0313 Q2050.9063,639.375 2053.4063,639.375 Q2054.1094,639.375 2054.75,639.5313 Q2055.4063,639.6875 2055.9688,639.9844 L2055.9688,642.7031 Q2055.3438,642.125 2054.75,641.8594 Q2054.1563,641.5781 2053.5313,641.5781 Q2052.1875,641.5781 2051.5,642.6563 Q2050.8125,643.7188 2050.8125,645.8125 Q2050.8125,647.9063 2051.5,648.9844 Q2052.1875,650.0469 2053.5313,650.0469 Q2054.1563,650.0469 2054.75,649.7813 Q2055.3438,649.5 2055.9688,648.9219 L2055.9688,651.6406 Z "/><text fill="#000000" font-family="sans-serif" font-size="12" lengthAdjust="spacingAndGlyphs" textLength="137" x="2067" y="650.1543">DeleteTeamCommand</text><line style="stroke: #A80036; stroke-width: 1.5;" x1="2039" x2="2206" y1="662" y2="662"/><line style="stroke: #A80036; stroke-width: 1.5;" x1="2039" x2="2206" y1="670" y2="670"/><!--MD5=[ffaa658111ac8f6b77849a11a67484cc]
class DeleteTournamentCommand--><rect fill="#FEFECE" filter="url(#f65r9brx92sa6)" height="48" id="DeleteTournamentCommand" rx="6.5" ry="6.5" style="stroke: #A80036; stroke-width: 1.5;" width="211" x="2242" y="630"/><ellipse cx="2257" cy="646" fill="#ADD1B2" rx="11" ry="11" style="stroke: #A80036; stroke-width: 1.0;"/><path d="M2259.9688,651.6406 Q2259.3906,651.9375 2258.75,652.0781 Q2258.1094,652.2344 2257.4063,652.2344 Q2254.9063,652.2344 2253.5781,650.5938 Q2252.2656,648.9375 2252.2656,645.8125 Q2252.2656,642.6875 2253.5781,641.0313 Q2254.9063,639.375 2257.4063,639.375 Q2258.1094,639.375 2258.75,639.5313 Q2259.4063,639.6875 2259.9688,639.9844 L2259.9688,642.7031 Q2259.3438,642.125 2258.75,641.8594 Q2258.1563,641.5781 2257.5313,641.5781 Q2256.1875,641.5781 2255.5,642.6563 Q2254.8125,643.7188 2254.8125,645.8125 Q2254.8125,647.9063 2255.5,648.9844 Q2256.1875,650.0469 2257.5313,650.0469 Q2258.1563,650.0469 2258.75,649.7813 Q2259.3438,649.5 2259.9688,648.9219 L2259.9688,651.6406 Z "/><text fill="#000000" font-family="sans-serif" font-size="12" lengthAdjust="spacingAndGlyphs" textLength="179" x="2271" y="650.1543">DeleteTournamentCommand</text><line style="stroke: #A80036; stroke-width: 1.5;" x1="2243" x2="2452" y1="662" y2="662"/><line style="stroke: #A80036; stroke-width: 1.5;" x1="2243" x2="2452" y1="670" y2="670"/><!--MD5=[1fc14bc977b4803d2594608cef2be56f]
class RemovePlayerFromTeamCommand--><rect fill="#FEFECE" filter="url(#f65r9brx92sa6)" height="48" id="RemovePlayerFromTeamCommand" rx="6.5" ry="6.5" style="stroke: #A80036; stroke-width: 1.5;" width="246" x="2488.5" y="630"/><ellipse cx="2503.5" cy="646" fill="#ADD1B2" rx="11" ry="11" style="stroke: #A80036; stroke-width: 1.0;"/><path d="M2506.4688,651.6406 Q2505.8906,651.9375 2505.25,652.0781 Q2504.6094,652.2344 2503.9063,652.2344 Q2501.4063,652.2344 2500.0781,650.5938 Q2498.7656,648.9375 2498.7656,645.8125 Q2498.7656,642.6875 2500.0781,641.0313 Q2501.4063,639.375 2503.9063,639.375 Q2504.6094,639.375 2505.25,639.5313 Q2505.9063,639.6875 2506.4688,639.9844 L2506.4688,642.7031 Q2505.8438,642.125 2505.25,641.8594 Q2504.6563,641.5781 2504.0313,641.5781 Q2502.6875,641.5781 2502,642.6563 Q2501.3125,643.7188 2501.3125,645.8125 Q2501.3125,647.9063 2502,648.9844 Q2502.6875,650.0469 2504.0313,650.0469 Q2504.6563,650.0469 2505.25,649.7813 Q2505.8438,649.5 2506.4688,648.9219 L2506.4688,651.6406 Z "/><text fill="#000000" font-family="sans-serif" font-size="12" lengthAdjust="spacingAndGlyphs" textLength="214" x="2517.5" y="650.1543">RemovePlayerFromTeamCommand</text><line style="stroke: #A80036; stroke-width: 1.5;" x1="2489.5" x2="2733.5" y1="662" y2="662"/><line style="stroke: #A80036; stroke-width: 1.5;" x1="2489.5" x2="2733.5" y1="670" y2="670"/><!--MD5=[cde3b4cbc2777eec07b4a2edbd49f416]
class TournamentMatchmakingCommand--><rect fill="#FEFECE" filter="url(#f65r9brx92sa6)" height="48" id="TournamentMatchmakingCommand" rx="6.5" ry="6.5" style="stroke: #A80036; stroke-width: 1.5;" width="253" x="2770" y="630"/><ellipse cx="2785" cy="646" fill="#ADD1B2" rx="11" ry="11" style="stroke: #A80036; stroke-width: 1.0;"/><path d="M2787.9688,651.6406 Q2787.3906,651.9375 2786.75,652.0781 Q2786.1094,652.2344 2785.4063,652.2344 Q2782.9063,652.2344 2781.5781,650.5938 Q2780.2656,648.9375 2780.2656,645.8125 Q2780.2656,642.6875 2781.5781,641.0313 Q2782.9063,639.375 2785.4063,639.375 Q2786.1094,639.375 2786.75,639.5313 Q2787.4063,639.6875 2787.9688,639.9844 L2787.9688,642.7031 Q2787.3438,642.125 2786.75,641.8594 Q2786.1563,641.5781 2785.5313,641.5781 Q2784.1875,641.5781 2783.5,642.6563 Q2782.8125,643.7188 2782.8125,645.8125 Q2782.8125,647.9063 2783.5,648.9844 Q2784.1875,650.0469 2785.5313,650.0469 Q2786.1563,650.0469 2786.75,649.7813 Q2787.3438,649.5 2787.9688,648.9219 L2787.9688,651.6406 Z "/><text fill="#000000" font-family="sans-serif" font-size="12" lengthAdjust="spacingAndGlyphs" textLength="221" x="2799" y="650.1543">TournamentMatchmakingCommand</text><line style="stroke: #A80036; stroke-width: 1.5;" x1="2771" x2="3022" y1="662" y2="662"/><line style="stroke: #A80036; stroke-width: 1.5;" x1="2771" x2="3022" y1="670" y2="670"/><!--MD5=[8ed7dd921cf376538ee12734daa48811]
class AddCurrentToTournamentCommand--><rect fill="#FEFECE" filter="url(#f65r9brx92sa6)" height="48" id="AddCurrentToTournamentCommand" rx="6.5" ry="6.5" style="stroke: #A80036; stroke-width: 1.5;" width="256" x="1770.5" y="744.5"/><ellipse cx="1785.5" cy="760.5" fill="#ADD1B2" rx="11" ry="11" style="stroke: #A80036; stroke-width: 1.0;"/><path d="M1788.4688,766.1406 Q1787.8906,766.4375 1787.25,766.5781 Q1786.6094,766.7344 1785.9063,766.7344 Q1783.4063,766.7344 1782.0781,765.0938 Q1780.7656,763.4375 1780.7656,760.3125 Q1780.7656,757.1875 1782.0781,755.5313 Q1783.4063,753.875 1785.9063,753.875 Q1786.6094,753.875 1787.25,754.0313 Q1787.9063,754.1875 1788.4688,754.4844 L1788.4688,757.2031 Q1787.8438,756.625 1787.25,756.3594 Q1786.6563,756.0781 1786.0313,756.0781 Q1784.6875,756.0781 1784,757.1563 Q1783.3125,758.2188 1783.3125,760.3125 Q1783.3125,762.4063 1784,763.4844 Q1784.6875,764.5469 1786.0313,764.5469 Q1786.6563,764.5469 1787.25,764.2813 Q1787.8438,764 1788.4688,763.4219 L1788.4688,766.1406 Z "/><text fill="#000000" font-family="sans-serif" font-size="12" lengthAdjust="spacingAndGlyphs" textLength="224" x="1799.5" y="764.6543">AddCurrentToTournamentCommand</text><line style="stroke: #A80036; stroke-width: 1.5;" x1="1771.5" x2="2025.5" y1="776.5" y2="776.5"/><line style="stroke: #A80036; stroke-width: 1.5;" x1="1771.5" x2="2025.5" y1="784.5" y2="784.5"/><!--MD5=[056a8352f392efb89b2bff7ea47d0288]
class RemoveCurrentFromTournamentCommand--><rect fill="#FEFECE" filter="url(#f65r9brx92sa6)" height="48" id="RemoveCurrentFromTournamentCommand" rx="6.5" ry="6.5" style="stroke: #A80036; stroke-width: 1.5;" width="297" x="2062" y="744.5"/><ellipse cx="2077" cy="760.5" fill="#ADD1B2" rx="11" ry="11" style="stroke: #A80036; stroke-width: 1.0;"/><path d="M2079.9688,766.1406 Q2079.3906,766.4375 2078.75,766.5781 Q2078.1094,766.7344 2077.4063,766.7344 Q2074.9063,766.7344 2073.5781,765.0938 Q2072.2656,763.4375 2072.2656,760.3125 Q2072.2656,757.1875 2073.5781,755.5313 Q2074.9063,753.875 2077.4063,753.875 Q2078.1094,753.875 2078.75,754.0313 Q2079.4063,754.1875 2079.9688,754.4844 L2079.9688,757.2031 Q2079.3438,756.625 2078.75,756.3594 Q2078.1563,756.0781 2077.5313,756.0781 Q2076.1875,756.0781 2075.5,757.1563 Q2074.8125,758.2188 2074.8125,760.3125 Q2074.8125,762.4063 2075.5,763.4844 Q2076.1875,764.5469 2077.5313,764.5469 Q2078.1563,764.5469 2078.75,764.2813 Q2079.3438,764 2079.9688,763.4219 L2079.9688,766.1406 Z "/><text fill="#000000" font-family="sans-serif" font-size="12" lengthAdjust="spacingAndGlyphs" textLength="265" x="2091" y="764.6543">RemoveCurrentFromTournamentCommand</text><line style="stroke: #A80036; stroke-width: 1.5;" x1="2063" x2="2358" y1="776.5" y2="776.5"/><line style="stroke: #A80036; stroke-width: 1.5;" x1="2063" x2="2358" y1="784.5" y2="784.5"/><!--MD5=[9a327b4ebbcef537bbeb020f52d954d4]
class ShowStatisticsCommand--><rect fill="#FEFECE" filter="url(#f65r9brx92sa6)" height="60.8047" id="ShowStatisticsCommand" rx="6.5" ry="6.5" style="stroke: #A80036; stroke-width: 1.5;" width="326" x="2394.5" y="738"/><ellipse cx="2476.75" cy="754" fill="#ADD1B2" rx="11" ry="11" style="stroke: #A80036; stroke-width: 1.0;"/><path d="M2479.7188,759.6406 Q2479.1406,759.9375 2478.5,760.0781 Q2477.8594,760.2344 2477.1563,760.2344 Q2474.6563,760.2344 2473.3281,758.5938 Q2472.0156,756.9375 2472.0156,753.8125 Q2472.0156,750.6875 2473.3281,749.0313 Q2474.6563,747.375 2477.1563,747.375 Q2477.8594,747.375 2478.5,747.5313 Q2479.1563,747.6875 2479.7188,747.9844 L2479.7188,750.7031 Q2479.0938,750.125 2478.5,749.8594 Q2477.9063,749.5781 2477.2813,749.5781 Q2475.9375,749.5781 2475.25,750.6563 Q2474.5625,751.7188 2474.5625,753.8125 Q2474.5625,755.9063 2475.25,756.9844 Q2475.9375,758.0469 2477.2813,758.0469 Q2477.9063,758.0469 2478.5,757.7813 Q2479.0938,757.5 2479.7188,756.9219 L2479.7188,759.6406 Z "/><text fill="#000000" font-family="sans-serif" font-size="12" lengthAdjust="spacingAndGlyphs" textLength="153" x="2497.25" y="758.1543">ShowStatisticsCommand</text><line style="stroke: #A80036; stroke-width: 1.5;" x1="2395.5" x2="2719.5" y1="770" y2="770"/><line style="stroke: #A80036; stroke-width: 1.5;" x1="2395.5" x2="2719.5" y1="778" y2="778"/><ellipse cx="2405.5" cy="789" fill="#84BE84" rx="3" ry="3" style="stroke: #038048; stroke-width: 1.0;"/><text fill="#000000" font-family="sans-serif" font-size="11" lengthAdjust="spacingAndGlyphs" textLength="300" x="2414.5" y="792.2104">ShowStatisticsCommand(ParticipantSet participants)</text><!--MD5=[e40388dd56f3eba72af3e3cbb6f3c87a]
class ExitCommand--><rect fill="#FEFECE" filter="url(#f65r9brx92sa6)" height="86.4141" id="ExitCommand" rx="6.5" ry="6.5" style="stroke: #A80036; stroke-width: 1.5;" width="184" x="2035.5" y="484"/><ellipse cx="2081.25" cy="500" fill="#ADD1B2" rx="11" ry="11" style="stroke: #A80036; stroke-width: 1.0;"/><path d="M2084.2188,505.6406 Q2083.6406,505.9375 2083,506.0781 Q2082.3594,506.2344 2081.6563,506.2344 Q2079.1563,506.2344 2077.8281,504.5938 Q2076.5156,502.9375 2076.5156,499.8125 Q2076.5156,496.6875 2077.8281,495.0313 Q2079.1563,493.375 2081.6563,493.375 Q2082.3594,493.375 2083,493.5313 Q2083.6563,493.6875 2084.2188,493.9844 L2084.2188,496.7031 Q2083.5938,496.125 2083,495.8594 Q2082.4063,495.5781 2081.7813,495.5781 Q2080.4375,495.5781 2079.75,496.6563 Q2079.0625,497.7188 2079.0625,499.8125 Q2079.0625,501.9063 2079.75,502.9844 Q2080.4375,504.0469 2081.7813,504.0469 Q2082.4063,504.0469 2083,503.7813 Q2083.5938,503.5 2084.2188,502.9219 L2084.2188,505.6406 Z "/><text fill="#000000" font-family="sans-serif" font-size="12" lengthAdjust="spacingAndGlyphs" textLength="84" x="2101.75" y="504.1543">ExitCommand</text><line style="stroke: #A80036; stroke-width: 1.5;" x1="2036.5" x2="2218.5" y1="516" y2="516"/><rect fill="none" height="6" style="stroke: #C82930; stroke-width: 1.0;" width="6" x="2043.5" y="524"/><text fill="#000000" font-family="sans-serif" font-size="11" lengthAdjust="spacingAndGlyphs" textLength="100" x="2055.5" y="530.2104">boolean executed</text><line style="stroke: #A80036; stroke-width: 1.5;" x1="2036.5" x2="2218.5" y1="536.8047" y2="536.8047"/><ellipse cx="2046.5" cy="547.8047" fill="#84BE84" rx="3" ry="3" style="stroke: #038048; stroke-width: 1.0;"/><text fill="#000000" font-family="sans-serif" font-size="11" lengthAdjust="spacingAndGlyphs" textLength="86" x="2055.5" y="551.0151">ExitCommand()</text><ellipse cx="2046.5" cy="560.6094" fill="#84BE84" rx="3" ry="3" style="stroke: #038048; stroke-width: 1.0;"/><text fill="#000000" font-family="sans-serif" font-size="11" lengthAdjust="spacingAndGlyphs" textLength="158" x="2055.5" y="563.8198">boolean hasBeenExecuted()</text><!--MD5=[7b0788963c7ebc80a526c7e9d82b2243]
class ListTournamentsCommand--><rect fill="#FEFECE" filter="url(#f65r9brx92sa6)" height="48" id="ListTournamentsCommand" rx="6.5" ry="6.5" style="stroke: #A80036; stroke-width: 1.5;" width="198" x="2755.5" y="744.5"/><ellipse cx="2770.5" cy="760.5" fill="#ADD1B2" rx="11" ry="11" style="stroke: #A80036; stroke-width: 1.0;"/><path d="M2773.4688,766.1406 Q2772.8906,766.4375 2772.25,766.5781 Q2771.6094,766.7344 2770.9063,766.7344 Q2768.4063,766.7344 2767.0781,765.0938 Q2765.7656,763.4375 2765.7656,760.3125 Q2765.7656,757.1875 2767.0781,755.5313 Q2768.4063,753.875 2770.9063,753.875 Q2771.6094,753.875 2772.25,754.0313 Q2772.9063,754.1875 2773.4688,754.4844 L2773.4688,757.2031 Q2772.8438,756.625 2772.25,756.3594 Q2771.6563,756.0781 2771.0313,756.0781 Q2769.6875,756.0781 2769,757.1563 Q2768.3125,758.2188 2768.3125,760.3125 Q2768.3125,762.4063 2769,763.4844 Q2769.6875,764.5469 2771.0313,764.5469 Q2771.6563,764.5469 2772.25,764.2813 Q2772.8438,764 2773.4688,763.4219 L2773.4688,766.1406 Z "/><text fill="#000000" font-family="sans-serif" font-size="12" lengthAdjust="spacingAndGlyphs" textLength="166" x="2784.5" y="764.6543">ListTournamentsCommand</text><line style="stroke: #A80036; stroke-width: 1.5;" x1="2756.5" x2="2952.5" y1="776.5" y2="776.5"/><line style="stroke: #A80036; stroke-width: 1.5;" x1="2756.5" x2="2952.5" y1="784.5" y2="784.5"/><!--MD5=[ba99def23bf25cdcbbfb7272ea2131d9]
class LoginCommand--><rect fill="#FEFECE" filter="url(#f65r9brx92sa6)" height="48" id="LoginCommand" rx="6.5" ry="6.5" style="stroke: #A80036; stroke-width: 1.5;" width="127" x="2255" y="503"/><ellipse cx="2270" cy="519" fill="#ADD1B2" rx="11" ry="11" style="stroke: #A80036; stroke-width: 1.0;"/><path d="M2272.9688,524.6406 Q2272.3906,524.9375 2271.75,525.0781 Q2271.1094,525.2344 2270.4063,525.2344 Q2267.9063,525.2344 2266.5781,523.5938 Q2265.2656,521.9375 2265.2656,518.8125 Q2265.2656,515.6875 2266.5781,514.0313 Q2267.9063,512.375 2270.4063,512.375 Q2271.1094,512.375 2271.75,512.5313 Q2272.4063,512.6875 2272.9688,512.9844 L2272.9688,515.7031 Q2272.3438,515.125 2271.75,514.8594 Q2271.1563,514.5781 2270.5313,514.5781 Q2269.1875,514.5781 2268.5,515.6563 Q2267.8125,516.7188 2267.8125,518.8125 Q2267.8125,520.9063 2268.5,521.9844 Q2269.1875,523.0469 2270.5313,523.0469 Q2271.1563,523.0469 2271.75,522.7813 Q2272.3438,522.5 2272.9688,521.9219 L2272.9688,524.6406 Z "/><text fill="#000000" font-family="sans-serif" font-size="12" lengthAdjust="spacingAndGlyphs" textLength="95" x="2284" y="523.1543">LoginCommand</text><line style="stroke: #A80036; stroke-width: 1.5;" x1="2256" x2="2381" y1="535" y2="535"/><line style="stroke: #A80036; stroke-width: 1.5;" x1="2256" x2="2381" y1="543" y2="543"/><!--MD5=[549358d4847e5cc1e1a6c783db6d6c19]
class LogoutCommand--><rect fill="#FEFECE" filter="url(#f65r9brx92sa6)" height="48" id="LogoutCommand" rx="6.5" ry="6.5" style="stroke: #A80036; stroke-width: 1.5;" width="137" x="3110" y="503"/><ellipse cx="3125" cy="519" fill="#ADD1B2" rx="11" ry="11" style="stroke: #A80036; stroke-width: 1.0;"/><path d="M3127.9688,524.6406 Q3127.3906,524.9375 3126.75,525.0781 Q3126.1094,525.2344 3125.4063,525.2344 Q3122.9063,525.2344 3121.5781,523.5938 Q3120.2656,521.9375 3120.2656,518.8125 Q3120.2656,515.6875 3121.5781,514.0313 Q3122.9063,512.375 3125.4063,512.375 Q3126.1094,512.375 3126.75,512.5313 Q3127.4063,512.6875 3127.9688,512.9844 L3127.9688,515.7031 Q3127.3438,515.125 3126.75,514.8594 Q3126.1563,514.5781 3125.5313,514.5781 Q3124.1875,514.5781 3123.5,515.6563 Q3122.8125,516.7188 3122.8125,518.8125 Q3122.8125,520.9063 3123.5,521.9844 Q3124.1875,523.0469 3125.5313,523.0469 Q3126.1563,523.0469 3126.75,522.7813 Q3127.3438,522.5 3127.9688,521.9219 L3127.9688,524.6406 Z "/><text fill="#000000" font-family="sans-serif" font-size="12" lengthAdjust="spacingAndGlyphs" textLength="105" x="3139" y="523.1543">LogoutCommand</text><line style="stroke: #A80036; stroke-width: 1.5;" x1="3111" x2="3246" y1="535" y2="535"/><line style="stroke: #A80036; stroke-width: 1.5;" x1="3111" x2="3246" y1="543" y2="543"/><!--MD5=[a96594a83e2ecdc78cbf17c2ddf01934]
class Category--><rect fill="#FEFECE" filter="url(#f65r9brx92sa6)" height="48" id="Category" rx="6.5" ry="6.5" style="stroke: #A80036; stroke-width: 1.5;" width="88" x="511.5" y="210.5"/><ellipse cx="526.5" cy="226.5" fill="#EB937F" rx="11" ry="11" style="stroke: #A80036; stroke-width: 1.0;"/><path d="M530.6094,232.5 L522.8906,232.5 L522.8906,220.1094 L530.6094,220.1094 L530.6094,222.2656 L525.3438,222.2656 L525.3438,224.9375 L530.1094,224.9375 L530.1094,227.0938 L525.3438,227.0938 L525.3438,230.3438 L530.6094,230.3438 L530.6094,232.5 Z "/><text fill="#000000" font-family="sans-serif" font-size="12" lengthAdjust="spacingAndGlyphs" textLength="56" x="540.5" y="230.6543">Category</text><line style="stroke: #A80036; stroke-width: 1.5;" x1="512.5" x2="598.5" y1="242.5" y2="242.5"/><line style="stroke: #A80036; stroke-width: 1.5;" x1="512.5" x2="598.5" y1="250.5" y2="250.5"/><!--MD5=[521817ab83e81da341a3f4b5e91bae41]
class Command--><rect fill="#FEFECE" filter="url(#f65r9brx92sa6)" height="163.2422" id="Command" rx="6.5" ry="6.5" style="stroke: #A80036; stroke-width: 1.5;" width="352" x="634.5" y="153"/><ellipse cx="775.25" cy="169" fill="#A9DCDF" rx="11" ry="11" style="stroke: #A80036; stroke-width: 1.0;"/><path d="M775.3594,164.3438 L774.2031,169.4219 L776.5313,169.4219 L775.3594,164.3438 Z M773.875,162.1094 L776.8594,162.1094 L780.2188,174.5 L777.7656,174.5 L777,171.4375 L773.7188,171.4375 L772.9688,174.5 L770.5313,174.5 L773.875,162.1094 Z "/><text fill="#000000" font-family="sans-serif" font-size="12" font-style="italic" lengthAdjust="spacingAndGlyphs" textLength="62" x="795.75" y="173.1543">Command</text><line style="stroke: #A80036; stroke-width: 1.5;" x1="635.5" x2="985.5" y1="185" y2="185"/><rect fill="none" height="6" style="stroke: #C82930; stroke-width: 1.0;" width="6" x="642.5" y="193"/><text fill="#000000" font-family="sans-serif" font-size="11" lengthAdjust="spacingAndGlyphs" textLength="70" x="654.5" y="199.2104">String name</text><rect fill="none" height="6" style="stroke: #C82930; stroke-width: 1.0;" width="6" x="642.5" y="205.8047"/><text fill="#000000" font-family="sans-serif" font-size="11" lengthAdjust="spacingAndGlyphs" textLength="73" x="654.5" y="212.0151">String usage</text><rect fill="none" height="6" style="stroke: #C82930; stroke-width: 1.0;" width="6" x="642.5" y="218.6094"/><text fill="#000000" font-family="sans-serif" font-size="11" lengthAdjust="spacingAndGlyphs" textLength="101" x="654.5" y="224.8198">String description</text><line style="stroke: #A80036; stroke-width: 1.5;" x1="635.5" x2="985.5" y1="231.4141" y2="231.4141"/><ellipse cx="645.5" cy="242.4141" fill="#84BE84" rx="3" ry="3" style="stroke: #038048; stroke-width: 1.0;"/><text fill="#000000" font-family="sans-serif" font-size="11" lengthAdjust="spacingAndGlyphs" textLength="326" x="654.5" y="245.6245">Command(String name, String usage, String description)</text><ellipse cx="645.5" cy="255.2188" fill="#84BE84" rx="3" ry="3" style="stroke: #038048; stroke-width: 1.0;"/><text fill="#000000" font-family="sans-serif" font-size="11" font-style="italic" lengthAdjust="spacingAndGlyphs" textLength="55" x="654.5" y="258.4292">void run()</text><ellipse cx="645.5" cy="268.0234" fill="#84BE84" rx="3" ry="3" style="stroke: #038048; stroke-width: 1.0;"/><text fill="#000000" font-family="sans-serif" font-size="11" lengthAdjust="spacingAndGlyphs" textLength="233" x="654.5" y="271.2339">boolean matches(String commandName)</text><ellipse cx="645.5" cy="280.8281" fill="#84BE84" rx="3" ry="3" style="stroke: #038048; stroke-width: 1.0;"/><text fill="#000000" font-family="sans-serif" font-size="11" lengthAdjust="spacingAndGlyphs" textLength="97" x="654.5" y="284.0386">String getName()</text><ellipse cx="645.5" cy="293.6328" fill="#84BE84" rx="3" ry="3" style="stroke: #038048; stroke-width: 1.0;"/><text fill="#000000" font-family="sans-serif" font-size="11" lengthAdjust="spacingAndGlyphs" textLength="100" x="654.5" y="296.8433">String getUsage()</text><ellipse cx="645.5" cy="306.4375" fill="#84BE84" rx="3" ry="3" style="stroke: #038048; stroke-width: 1.0;"/><text fill="#000000" font-family="sans-serif" font-size="11" lengthAdjust="spacingAndGlyphs" textLength="128" x="654.5" y="309.6479">String getDescription()</text><!--MD5=[5f0899136ed8f523b18ed05779c24112]
class Match--><rect fill="#FEFECE" filter="url(#f65r9brx92sa6)" height="53.9375" id="Match" rx="6.5" ry="6.5" style="stroke: #A80036; stroke-width: 1.5;" width="115" x="1021" y="207.5"/><ellipse cx="1036" cy="226.4688" fill="#ADD1B2" rx="11" ry="11" style="stroke: #A80036; stroke-width: 1.0;"/><path d="M1038.9688,232.1094 Q1038.3906,232.4063 1037.75,232.5469 Q1037.1094,232.7031 1036.4063,232.7031 Q1033.9063,232.7031 1032.5781,231.0625 Q1031.2656,229.4063 1031.2656,226.2813 Q1031.2656,223.1563 1032.5781,221.5 Q1033.9063,219.8438 1036.4063,219.8438 Q1037.1094,219.8438 1037.75,220 Q1038.4063,220.1563 1038.9688,220.4531 L1038.9688,223.1719 Q1038.3438,222.5938 1037.75,222.3281 Q1037.1563,222.0469 1036.5313,222.0469 Q1035.1875,222.0469 1034.5,223.125 Q1033.8125,224.1875 1033.8125,226.2813 Q1033.8125,228.375 1034.5,229.4531 Q1035.1875,230.5156 1036.5313,230.5156 Q1037.1563,230.5156 1037.75,230.25 Q1038.3438,229.9688 1038.9688,229.3906 L1038.9688,232.1094 Z "/><text fill="#000000" font-family="sans-serif" font-size="12" font-style="italic" lengthAdjust="spacingAndGlyphs" textLength="87" x="1048" y="223.6387">«deprecated»</text><text fill="#000000" font-family="sans-serif" font-size="12" lengthAdjust="spacingAndGlyphs" textLength="38" x="1072.5" y="237.6074">Match</text><line style="stroke: #A80036; stroke-width: 1.5;" x1="1022" x2="1135" y1="245.4375" y2="245.4375"/><line style="stroke: #A80036; stroke-width: 1.5;" x1="1022" x2="1135" y1="253.4375" y2="253.4375"/><!--MD5=[bb46b92143e61272c95b3f45124f3f52]
class MatchList--><rect fill="#FEFECE" filter="url(#f65r9brx92sa6)" height="53.9375" id="MatchList" rx="6.5" ry="6.5" style="stroke: #A80036; stroke-width: 1.5;" width="115" x="1171" y="207.5"/><ellipse cx="1186" cy="226.4688" fill="#ADD1B2" rx="11" ry="11" style="stroke: #A80036; stroke-width: 1.0;"/><path d="M1188.9688,232.1094 Q1188.3906,232.4063 1187.75,232.5469 Q1187.1094,232.7031 1186.4063,232.7031 Q1183.9063,232.7031 1182.5781,231.0625 Q1181.2656,229.4063 1181.2656,226.2813 Q1181.2656,223.1563 1182.5781,221.5 Q1183.9063,219.8438 1186.4063,219.8438 Q1187.1094,219.8438 1187.75,220 Q1188.4063,220.1563 1188.9688,220.4531 L1188.9688,223.1719 Q1188.3438,222.5938 1187.75,222.3281 Q1187.1563,222.0469 1186.5313,222.0469 Q1185.1875,222.0469 1184.5,223.125 Q1183.8125,224.1875 1183.8125,226.2813 Q1183.8125,228.375 1184.5,229.4531 Q1185.1875,230.5156 1186.5313,230.5156 Q1187.1563,230.5156 1187.75,230.25 Q1188.3438,229.9688 1188.9688,229.3906 L1188.9688,232.1094 Z "/><text fill="#000000" font-family="sans-serif" font-size="12" font-style="italic" lengthAdjust="spacingAndGlyphs" textLength="87" x="1198" y="223.6387">«deprecated»</text><text fill="#000000" font-family="sans-serif" font-size="12" lengthAdjust="spacingAndGlyphs" textLength="59" x="1212" y="237.6074">MatchList</text><line style="stroke: #A80036; stroke-width: 1.5;" x1="1172" x2="1285" y1="245.4375" y2="245.4375"/><line style="stroke: #A80036; stroke-width: 1.5;" x1="1172" x2="1285" y1="253.4375" y2="253.4375"/><!--MD5=[b1b35833dc86dffc6b5d0c34dd643d10]
class Participant--><rect fill="#FEFECE" filter="url(#f65r9brx92sa6)" height="48" id="Participant" rx="6.5" ry="6.5" style="stroke: #A80036; stroke-width: 1.5;" width="99" x="1321" y="210.5"/><ellipse cx="1336" cy="226.5" fill="#A9DCDF" rx="11" ry="11" style="stroke: #A80036; stroke-width: 1.0;"/><path d="M1336.1094,221.8438 L1334.9531,226.9219 L1337.2813,226.9219 L1336.1094,221.8438 Z M1334.625,219.6094 L1337.6094,219.6094 L1340.9688,232 L1338.5156,232 L1337.75,228.9375 L1334.4688,228.9375 L1333.7188,232 L1331.2813,232 L1334.625,219.6094 Z "/><text fill="#000000" font-family="sans-serif" font-size="12" font-style="italic" lengthAdjust="spacingAndGlyphs" textLength="67" x="1350" y="230.6543">Participant</text><line style="stroke: #A80036; stroke-width: 1.5;" x1="1322" x2="1419" y1="242.5" y2="242.5"/><line style="stroke: #A80036; stroke-width: 1.5;" x1="1322" x2="1419" y1="250.5" y2="250.5"/><!--MD5=[e7e9d4a4b293a0f260a9f36a588d10b1]
class ParticipantSet--><rect fill="#FEFECE" filter="url(#f65r9brx92sa6)" height="48" id="ParticipantSet" rx="6.5" ry="6.5" style="stroke: #A80036; stroke-width: 1.5;" width="121" x="512" y="376"/><ellipse cx="527" cy="392" fill="#ADD1B2" rx="11" ry="11" style="stroke: #A80036; stroke-width: 1.0;"/><path d="M529.9688,397.6406 Q529.3906,397.9375 528.75,398.0781 Q528.1094,398.2344 527.4063,398.2344 Q524.9063,398.2344 523.5781,396.5938 Q522.2656,394.9375 522.2656,391.8125 Q522.2656,388.6875 523.5781,387.0313 Q524.9063,385.375 527.4063,385.375 Q528.1094,385.375 528.75,385.5313 Q529.4063,385.6875 529.9688,385.9844 L529.9688,388.7031 Q529.3438,388.125 528.75,387.8594 Q528.1563,387.5781 527.5313,387.5781 Q526.1875,387.5781 525.5,388.6563 Q524.8125,389.7188 524.8125,391.8125 Q524.8125,393.9063 525.5,394.9844 Q526.1875,396.0469 527.5313,396.0469 Q528.1563,396.0469 528.75,395.7813 Q529.3438,395.5 529.9688,394.9219 L529.9688,397.6406 Z "/><text fill="#000000" font-family="sans-serif" font-size="12" lengthAdjust="spacingAndGlyphs" textLength="89" x="541" y="396.1543">ParticipantSet</text><line style="stroke: #A80036; stroke-width: 1.5;" x1="513" x2="632" y1="408" y2="408"/><line style="stroke: #A80036; stroke-width: 1.5;" x1="513" x2="632" y1="416" y2="416"/><!--MD5=[2cb47ba637a0d19583e6199456f6ad0b]
class Player--><rect fill="#FEFECE" filter="url(#f65r9brx92sa6)" height="48" id="Player" rx="6.5" ry="6.5" style="stroke: #A80036; stroke-width: 1.5;" width="70" x="668.5" y="376"/><ellipse cx="683.5" cy="392" fill="#ADD1B2" rx="11" ry="11" style="stroke: #A80036; stroke-width: 1.0;"/><path d="M686.4688,397.6406 Q685.8906,397.9375 685.25,398.0781 Q684.6094,398.2344 683.9063,398.2344 Q681.4063,398.2344 680.0781,396.5938 Q678.7656,394.9375 678.7656,391.8125 Q678.7656,388.6875 680.0781,387.0313 Q681.4063,385.375 683.9063,385.375 Q684.6094,385.375 685.25,385.5313 Q685.9063,385.6875 686.4688,385.9844 L686.4688,388.7031 Q685.8438,388.125 685.25,387.8594 Q684.6563,387.5781 684.0313,387.5781 Q682.6875,387.5781 682,388.6563 Q681.3125,389.7188 681.3125,391.8125 Q681.3125,393.9063 682,394.9844 Q682.6875,396.0469 684.0313,396.0469 Q684.6563,396.0469 685.25,395.7813 Q685.8438,395.5 686.4688,394.9219 L686.4688,397.6406 Z "/><text fill="#000000" font-family="sans-serif" font-size="12" lengthAdjust="spacingAndGlyphs" textLength="38" x="697.5" y="396.1543">Player</text><line style="stroke: #A80036; stroke-width: 1.5;" x1="669.5" x2="737.5" y1="408" y2="408"/><line style="stroke: #A80036; stroke-width: 1.5;" x1="669.5" x2="737.5" y1="416" y2="416"/><!--MD5=[a3638c1e5b65d287ecad7f06f5c0f212]
class Role--><rect fill="#FEFECE" filter="url(#f65r9brx92sa6)" height="48" id="Role" rx="6.5" ry="6.5" style="stroke: #A80036; stroke-width: 1.5;" width="59" x="774" y="376"/><ellipse cx="789" cy="392" fill="#EB937F" rx="11" ry="11" style="stroke: #A80036; stroke-width: 1.0;"/><path d="M793.1094,398 L785.3906,398 L785.3906,385.6094 L793.1094,385.6094 L793.1094,387.7656 L787.8438,387.7656 L787.8438,390.4375 L792.6094,390.4375 L792.6094,392.5938 L787.8438,392.5938 L787.8438,395.8438 L793.1094,395.8438 L793.1094,398 Z "/><text fill="#000000" font-family="sans-serif" font-size="12" lengthAdjust="spacingAndGlyphs" textLength="27" x="803" y="396.1543">Role</text><line style="stroke: #A80036; stroke-width: 1.5;" x1="775" x2="832" y1="408" y2="408"/><line style="stroke: #A80036; stroke-width: 1.5;" x1="775" x2="832" y1="416" y2="416"/><!--MD5=[dfb0845b8492ffe07b1ce50e003034d7]
class Team--><rect fill="#FEFECE" filter="url(#f65r9brx92sa6)" height="48" id="Team" rx="6.5" ry="6.5" style="stroke: #A80036; stroke-width: 1.5;" width="66" x="868.5" y="376"/><ellipse cx="883.5" cy="392" fill="#ADD1B2" rx="11" ry="11" style="stroke: #A80036; stroke-width: 1.0;"/><path d="M886.4688,397.6406 Q885.8906,397.9375 885.25,398.0781 Q884.6094,398.2344 883.9063,398.2344 Q881.4063,398.2344 880.0781,396.5938 Q878.7656,394.9375 878.7656,391.8125 Q878.7656,388.6875 880.0781,387.0313 Q881.4063,385.375 883.9063,385.375 Q884.6094,385.375 885.25,385.5313 Q885.9063,385.6875 886.4688,385.9844 L886.4688,388.7031 Q885.8438,388.125 885.25,387.8594 Q884.6563,387.5781 884.0313,387.5781 Q882.6875,387.5781 882,388.6563 Q881.3125,389.7188 881.3125,391.8125 Q881.3125,393.9063 882,394.9844 Q882.6875,396.0469 884.0313,396.0469 Q884.6563,396.0469 885.25,395.7813 Q885.8438,395.5 886.4688,394.9219 L886.4688,397.6406 Z "/><text fill="#000000" font-family="sans-serif" font-size="12" lengthAdjust="spacingAndGlyphs" textLength="34" x="897.5" y="396.1543">Team</text><line style="stroke: #A80036; stroke-width: 1.5;" x1="869.5" x2="933.5" y1="408" y2="408"/><line style="stroke: #A80036; stroke-width: 1.5;" x1="869.5" x2="933.5" y1="416" y2="416"/><!--MD5=[a4b4d324fd2684dbb9bd6a0eaf7882b2]
class Tournament--><rect fill="#FEFECE" filter="url(#f65r9brx92sa6)" height="48" id="Tournament" rx="6.5" ry="6.5" style="stroke: #A80036; stroke-width: 1.5;" width="108" x="518.5" y="503"/><ellipse cx="533.5" cy="519" fill="#ADD1B2" rx="11" ry="11" style="stroke: #A80036; stroke-width: 1.0;"/><path d="M536.4688,524.6406 Q535.8906,524.9375 535.25,525.0781 Q534.6094,525.2344 533.9063,525.2344 Q531.4063,525.2344 530.0781,523.5938 Q528.7656,521.9375 528.7656,518.8125 Q528.7656,515.6875 530.0781,514.0313 Q531.4063,512.375 533.9063,512.375 Q534.6094,512.375 535.25,512.5313 Q535.9063,512.6875 536.4688,512.9844 L536.4688,515.7031 Q535.8438,515.125 535.25,514.8594 Q534.6563,514.5781 534.0313,514.5781 Q532.6875,514.5781 532,515.6563 Q531.3125,516.7188 531.3125,518.8125 Q531.3125,520.9063 532,521.9844 Q532.6875,523.0469 534.0313,523.0469 Q534.6563,523.0469 535.25,522.7813 Q535.8438,522.5 536.4688,521.9219 L536.4688,524.6406 Z "/><text fill="#000000" font-family="sans-serif" font-size="12" lengthAdjust="spacingAndGlyphs" textLength="76" x="547.5" y="523.1543">Tournament</text><line style="stroke: #A80036; stroke-width: 1.5;" x1="519.5" x2="625.5" y1="535" y2="535"/><line style="stroke: #A80036; stroke-width: 1.5;" x1="519.5" x2="625.5" y1="543" y2="543"/><!--MD5=[7670bbecd0ed0790a56d136b9eb70a94]
class TournamentList--><rect fill="#FEFECE" filter="url(#f65r9brx92sa6)" height="48" id="TournamentList" rx="6.5" ry="6.5" style="stroke: #A80036; stroke-width: 1.5;" width="129" x="662" y="503"/><ellipse cx="677" cy="519" fill="#ADD1B2" rx="11" ry="11" style="stroke: #A80036; stroke-width: 1.0;"/><path d="M679.9688,524.6406 Q679.3906,524.9375 678.75,525.0781 Q678.1094,525.2344 677.4063,525.2344 Q674.9063,525.2344 673.5781,523.5938 Q672.2656,521.9375 672.2656,518.8125 Q672.2656,515.6875 673.5781,514.0313 Q674.9063,512.375 677.4063,512.375 Q678.1094,512.375 678.75,512.5313 Q679.4063,512.6875 679.9688,512.9844 L679.9688,515.7031 Q679.3438,515.125 678.75,514.8594 Q678.1563,514.5781 677.5313,514.5781 Q676.1875,514.5781 675.5,515.6563 Q674.8125,516.7188 674.8125,518.8125 Q674.8125,520.9063 675.5,521.9844 Q676.1875,523.0469 677.5313,523.0469 Q678.1563,523.0469 678.75,522.7813 Q679.3438,522.5 679.9688,521.9219 L679.9688,524.6406 Z "/><text fill="#000000" font-family="sans-serif" font-size="12" lengthAdjust="spacingAndGlyphs" textLength="97" x="691" y="523.1543">TournamentList</text><line style="stroke: #A80036; stroke-width: 1.5;" x1="663" x2="790" y1="535" y2="535"/><line style="stroke: #A80036; stroke-width: 1.5;" x1="663" x2="790" y1="543" y2="543"/><!--MD5=[3fd616f346a44cd59a91eb10b19e157c]
class User--><rect fill="#FEFECE" filter="url(#f65r9brx92sa6)" height="48" id="User" rx="6.5" ry="6.5" style="stroke: #A80036; stroke-width: 1.5;" width="61" x="826" y="503"/><ellipse cx="841" cy="519" fill="#ADD1B2" rx="11" ry="11" style="stroke: #A80036; stroke-width: 1.0;"/><path d="M843.9688,524.6406 Q843.3906,524.9375 842.75,525.0781 Q842.1094,525.2344 841.4063,525.2344 Q838.9063,525.2344 837.5781,523.5938 Q836.2656,521.9375 836.2656,518.8125 Q836.2656,515.6875 837.5781,514.0313 Q838.9063,512.375 841.4063,512.375 Q842.1094,512.375 842.75,512.5313 Q843.4063,512.6875 843.9688,512.9844 L843.9688,515.7031 Q843.3438,515.125 842.75,514.8594 Q842.1563,514.5781 841.5313,514.5781 Q840.1875,514.5781 839.5,515.6563 Q838.8125,516.7188 838.8125,518.8125 Q838.8125,520.9063 839.5,521.9844 Q840.1875,523.0469 841.5313,523.0469 Q842.1563,523.0469 842.75,522.7813 Q843.3438,522.5 843.9688,521.9219 L843.9688,524.6406 Z "/><text fill="#000000" font-family="sans-serif" font-size="12" lengthAdjust="spacingAndGlyphs" textLength="29" x="855" y="523.1543">User</text><line style="stroke: #A80036; stroke-width: 1.5;" x1="827" x2="886" y1="535" y2="535"/><line style="stroke: #A80036; stroke-width: 1.5;" x1="827" x2="886" y1="543" y2="543"/><!--MD5=[3124add794188d75953438ffc4835d72]
class CLI--><rect fill="#FEFECE" filter="url(#f65r9brx92sa6)" height="48" id="CLI" rx="6.5" ry="6.5" style="stroke: #A80036; stroke-width: 1.5;" width="49" x="857" y="874"/><ellipse cx="872" cy="890" fill="#ADD1B2" rx="11" ry="11" style="stroke: #A80036; stroke-width: 1.0;"/><path d="M874.9688,895.6406 Q874.3906,895.9375 873.75,896.0781 Q873.1094,896.2344 872.4063,896.2344 Q869.9063,896.2344 868.5781,894.5938 Q867.2656,892.9375 867.2656,889.8125 Q867.2656,886.6875 868.5781,885.0313 Q869.9063,883.375 872.4063,883.375 Q873.1094,883.375 873.75,883.5313 Q874.4063,883.6875 874.9688,883.9844 L874.9688,886.7031 Q874.3438,886.125 873.75,885.8594 Q873.1563,885.5781 872.5313,885.5781 Q871.1875,885.5781 870.5,886.6563 Q869.8125,887.7188 869.8125,889.8125 Q869.8125,891.9063 870.5,892.9844 Q871.1875,894.0469 872.5313,894.0469 Q873.1563,894.0469 873.75,893.7813 Q874.3438,893.5 874.9688,892.9219 L874.9688,895.6406 Z "/><text fill="#000000" font-family="sans-serif" font-size="12" lengthAdjust="spacingAndGlyphs" textLength="17" x="886" y="894.1543">CLI</text><line style="stroke: #A80036; stroke-width: 1.5;" x1="858" x2="905" y1="906" y2="906"/><line style="stroke: #A80036; stroke-width: 1.5;" x1="858" x2="905" y1="914" y2="914"/><!--MD5=[c565ad57ffb732561f3f84fb6a1fbba9]
class CommandView--><rect fill="#FEFECE" filter="url(#f65r9brx92sa6)" height="48" id="CommandView" rx="6.5" ry="6.5" style="stroke: #A80036; stroke-width: 1.5;" width="122" x="941.5" y="874"/><ellipse cx="956.5" cy="890" fill="#ADD1B2" rx="11" ry="11" style="stroke: #A80036; stroke-width: 1.0;"/><path d="M959.4688,895.6406 Q958.8906,895.9375 958.25,896.0781 Q957.6094,896.2344 956.9063,896.2344 Q954.4063,896.2344 953.0781,894.5938 Q951.7656,892.9375 951.7656,889.8125 Q951.7656,886.6875 953.0781,885.0313 Q954.4063,883.375 956.9063,883.375 Q957.6094,883.375 958.25,883.5313 Q958.9063,883.6875 959.4688,883.9844 L959.4688,886.7031 Q958.8438,886.125 958.25,885.8594 Q957.6563,885.5781 957.0313,885.5781 Q955.6875,885.5781 955,886.6563 Q954.3125,887.7188 954.3125,889.8125 Q954.3125,891.9063 955,892.9844 Q955.6875,894.0469 957.0313,894.0469 Q957.6563,894.0469 958.25,893.7813 Q958.8438,893.5 959.4688,892.9219 L959.4688,895.6406 Z "/><text fill="#000000" font-family="sans-serif" font-size="12" lengthAdjust="spacingAndGlyphs" textLength="90" x="970.5" y="894.1543">CommandView</text><line style="stroke: #A80036; stroke-width: 1.5;" x1="942.5" x2="1062.5" y1="906" y2="906"/><line style="stroke: #A80036; stroke-width: 1.5;" x1="942.5" x2="1062.5" y1="914" y2="914"/><!--MD5=[b8cfd8c4119a3b0a7a46bfc5fc780f85]
class Error--><rect fill="#FEFECE" filter="url(#f65r9brx92sa6)" height="48" id="Error" rx="6.5" ry="6.5" style="stroke: #A80036; stroke-width: 1.5;" width="63" x="1099" y="874"/><ellipse cx="1114" cy="890" fill="#EB937F" rx="11" ry="11" style="stroke: #A80036; stroke-width: 1.0;"/><path d="M1118.1094,896 L1110.3906,896 L1110.3906,883.6094 L1118.1094,883.6094 L1118.1094,885.7656 L1112.8438,885.7656 L1112.8438,888.4375 L1117.6094,888.4375 L1117.6094,890.5938 L1112.8438,890.5938 L1112.8438,893.8438 L1118.1094,893.8438 L1118.1094,896 Z "/><text fill="#000000" font-family="sans-serif" font-size="12" lengthAdjust="spacingAndGlyphs" textLength="31" x="1128" y="894.1543">Error</text><line style="stroke: #A80036; stroke-width: 1.5;" x1="1100" x2="1161" y1="906" y2="906"/><line style="stroke: #A80036; stroke-width: 1.5;" x1="1100" x2="1161" y1="914" y2="914"/><!--MD5=[bea5b0d46523efab5ea1c1d339f396f0]
class Message--><rect fill="#FEFECE" filter="url(#f65r9brx92sa6)" height="48" id="Message" rx="6.5" ry="6.5" style="stroke: #A80036; stroke-width: 1.5;" width="88" x="1197.5" y="874"/><ellipse cx="1212.5" cy="890" fill="#EB937F" rx="11" ry="11" style="stroke: #A80036; stroke-width: 1.0;"/><path d="M1216.6094,896 L1208.8906,896 L1208.8906,883.6094 L1216.6094,883.6094 L1216.6094,885.7656 L1211.3438,885.7656 L1211.3438,888.4375 L1216.1094,888.4375 L1216.1094,890.5938 L1211.3438,890.5938 L1211.3438,893.8438 L1216.6094,893.8438 L1216.6094,896 Z "/><text fill="#000000" font-family="sans-serif" font-size="12" lengthAdjust="spacingAndGlyphs" textLength="56" x="1226.5" y="894.1543">Message</text><line style="stroke: #A80036; stroke-width: 1.5;" x1="1198.5" x2="1284.5" y1="906" y2="906"/><line style="stroke: #A80036; stroke-width: 1.5;" x1="1198.5" x2="1284.5" y1="914" y2="914"/><!--MD5=[e89201c003afadeaa92931e7ea9a4c4a]
class ParticipantSetView--><rect fill="#FEFECE" filter="url(#f65r9brx92sa6)" height="48" id="ParticipantSetView" rx="6.5" ry="6.5" style="stroke: #A80036; stroke-width: 1.5;" width="149" x="928" y="982"/><ellipse cx="943" cy="998" fill="#ADD1B2" rx="11" ry="11" style="stroke: #A80036; stroke-width: 1.0;"/><path d="M945.9688,1003.6406 Q945.3906,1003.9375 944.75,1004.0781 Q944.1094,1004.2344 943.4063,1004.2344 Q940.9063,1004.2344 939.5781,1002.5938 Q938.2656,1000.9375 938.2656,997.8125 Q938.2656,994.6875 939.5781,993.0313 Q940.9063,991.375 943.4063,991.375 Q944.1094,991.375 944.75,991.5313 Q945.4063,991.6875 945.9688,991.9844 L945.9688,994.7031 Q945.3438,994.125 944.75,993.8594 Q944.1563,993.5781 943.5313,993.5781 Q942.1875,993.5781 941.5,994.6563 Q940.8125,995.7188 940.8125,997.8125 Q940.8125,999.9063 941.5,1000.9844 Q942.1875,1002.0469 943.5313,1002.0469 Q944.1563,1002.0469 944.75,1001.7813 Q945.3438,1001.5 945.9688,1000.9219 L945.9688,1003.6406 Z "/><text fill="#000000" font-family="sans-serif" font-size="12" lengthAdjust="spacingAndGlyphs" textLength="117" x="957" y="1002.1543">ParticipantSetView</text><line style="stroke: #A80036; stroke-width: 1.5;" x1="929" x2="1076" y1="1014" y2="1014"/><line style="stroke: #A80036; stroke-width: 1.5;" x1="929" x2="1076" y1="1022" y2="1022"/><!--MD5=[ad8757453c5d48be8b0e3222ff3face1]
class TournamentListView--><rect fill="#FEFECE" filter="url(#f65r9brx92sa6)" height="48" id="TournamentListView" rx="6.5" ry="6.5" style="stroke: #A80036; stroke-width: 1.5;" width="157" x="1112" y="982"/><ellipse cx="1127" cy="998" fill="#ADD1B2" rx="11" ry="11" style="stroke: #A80036; stroke-width: 1.0;"/><path d="M1129.9688,1003.6406 Q1129.3906,1003.9375 1128.75,1004.0781 Q1128.1094,1004.2344 1127.4063,1004.2344 Q1124.9063,1004.2344 1123.5781,1002.5938 Q1122.2656,1000.9375 1122.2656,997.8125 Q1122.2656,994.6875 1123.5781,993.0313 Q1124.9063,991.375 1127.4063,991.375 Q1128.1094,991.375 1128.75,991.5313 Q1129.4063,991.6875 1129.9688,991.9844 L1129.9688,994.7031 Q1129.3438,994.125 1128.75,993.8594 Q1128.1563,993.5781 1127.5313,993.5781 Q1126.1875,993.5781 1125.5,994.6563 Q1124.8125,995.7188 1124.8125,997.8125 Q1124.8125,999.9063 1125.5,1000.9844 Q1126.1875,1002.0469 1127.5313,1002.0469 Q1128.1563,1002.0469 1128.75,1001.7813 Q1129.3438,1001.5 1129.9688,1000.9219 L1129.9688,1003.6406 Z "/><text fill="#000000" font-family="sans-serif" font-size="12" lengthAdjust="spacingAndGlyphs" textLength="125" x="1141" y="1002.1543">TournamentListView</text><line style="stroke: #A80036; stroke-width: 1.5;" x1="1113" x2="1268" y1="1014" y2="1014"/><line style="stroke: #A80036; stroke-width: 1.5;" x1="1113" x2="1268" y1="1022" y2="1022"/><!--MD5=[442558ebc656c74aacfcf261b0b4a150]
class SportsManagementSystem--><rect fill="#FEFECE" filter="url(#f65r9brx92sa6)" height="86.4141" id="SportsManagementSystem" rx="6.5" ry="6.5" style="stroke: #A80036; stroke-width: 1.5;" width="200" x="255.5" y="191.5"/><ellipse cx="270.5" cy="207.5" fill="#ADD1B2" rx="11" ry="11" style="stroke: #A80036; stroke-width: 1.0;"/><path d="M273.4688,213.1406 Q272.8906,213.4375 272.25,213.5781 Q271.6094,213.7344 270.9063,213.7344 Q268.4063,213.7344 267.0781,212.0938 Q265.7656,210.4375 265.7656,207.3125 Q265.7656,204.1875 267.0781,202.5313 Q268.4063,200.875 270.9063,200.875 Q271.6094,200.875 272.25,201.0313 Q272.9063,201.1875 273.4688,201.4844 L273.4688,204.2031 Q272.8438,203.625 272.25,203.3594 Q271.6563,203.0781 271.0313,203.0781 Q269.6875,203.0781 269,204.1563 Q268.3125,205.2188 268.3125,207.3125 Q268.3125,209.4063 269,210.4844 Q269.6875,211.5469 271.0313,211.5469 Q271.6563,211.5469 272.25,211.2813 Q272.8438,211 273.4688,210.4219 L273.4688,213.1406 Z "/><text fill="#000000" font-family="sans-serif" font-size="12" lengthAdjust="spacingAndGlyphs" textLength="168" x="284.5" y="211.6543">SportsManagementSystem</text><line style="stroke: #A80036; stroke-width: 1.5;" x1="256.5" x2="454.5" y1="223.5" y2="223.5"/><line style="stroke: #A80036; stroke-width: 1.5;" x1="256.5" x2="454.5" y1="231.5" y2="231.5"/><ellipse cx="266.5" cy="242.5" fill="#84BE84" rx="3" ry="3" style="stroke: #038048; stroke-width: 1.0;"/><text fill="#000000" font-family="sans-serif" font-size="11" lengthAdjust="spacingAndGlyphs" text-decoration="underline" textLength="135" x="275.5" y="245.7104">void main(String[] args)</text><ellipse cx="266.5" cy="255.3047" fill="#84BE84" rx="3" ry="3" style="stroke: #038048; stroke-width: 1.0;"/><text fill="#000000" font-family="sans-serif" font-size="11" lengthAdjust="spacingAndGlyphs" textLength="62" x="275.5" y="258.5151">void start()</text><ellipse cx="266.5" cy="268.1094" fill="#84BE84" rx="3" ry="3" style="stroke: #038048; stroke-width: 1.0;"/><text fill="#000000" font-family="sans-serif" font-size="11" lengthAdjust="spacingAndGlyphs" textLength="144" x="275.5" y="271.3198">void pullInitialData(CLI cli)</text><!--MD5=[fe37249548207b1d31a4b82da73abebb]
class SportManagementSystem--><rect fill="#FEFECE" filter="url(#f65r9brx92sa6)" height="48" id="SportManagementSystem" rx="6.5" ry="6.5" style="stroke: #A80036; stroke-width: 1.5;" width="193" x="6" y="744.5"/><ellipse cx="21" cy="760.5" fill="#ADD1B2" rx="11" ry="11" style="stroke: #A80036; stroke-width: 1.0;"/><path d="M23.9688,766.1406 Q23.3906,766.4375 22.75,766.5781 Q22.1094,766.7344 21.4063,766.7344 Q18.9063,766.7344 17.5781,765.0938 Q16.2656,763.4375 16.2656,760.3125 Q16.2656,757.1875 17.5781,755.5313 Q18.9063,753.875 21.4063,753.875 Q22.1094,753.875 22.75,754.0313 Q23.4063,754.1875 23.9688,754.4844 L23.9688,757.2031 Q23.3438,756.625 22.75,756.3594 Q22.1563,756.0781 21.5313,756.0781 Q20.1875,756.0781 19.5,757.1563 Q18.8125,758.2188 18.8125,760.3125 Q18.8125,762.4063 19.5,763.4844 Q20.1875,764.5469 21.5313,764.5469 Q22.1563,764.5469 22.75,764.2813 Q23.3438,764 23.9688,763.4219 L23.9688,766.1406 Z "/><text fill="#000000" font-family="sans-serif" font-size="12" lengthAdjust="spacingAndGlyphs" textLength="161" x="35" y="764.6543">SportManagementSystem</text><line style="stroke: #A80036; stroke-width: 1.5;" x1="7" x2="198" y1="776.5" y2="776.5"/><line style="stroke: #A80036; stroke-width: 1.5;" x1="7" x2="198" y1="784.5" y2="784.5"/><!--MD5=[63f51e21bce3dc7786c9beb07a9c7d02]
class {Any}Command--><rect fill="#FEFECE" filter="url(#f65r9brx92sa6)" height="48" id="{Any}Command" rx="6.5" ry="6.5" style="stroke: #A80036; stroke-width: 1.5;" width="132" x="3303.5" y="630"/><ellipse cx="3318.5" cy="646" fill="#ADD1B2" rx="11" ry="11" style="stroke: #A80036; stroke-width: 1.0;"/><path d="M3321.4688,651.6406 Q3320.8906,651.9375 3320.25,652.0781 Q3319.6094,652.2344 3318.9063,652.2344 Q3316.4063,652.2344 3315.0781,650.5938 Q3313.7656,648.9375 3313.7656,645.8125 Q3313.7656,642.6875 3315.0781,641.0313 Q3316.4063,639.375 3318.9063,639.375 Q3319.6094,639.375 3320.25,639.5313 Q3320.9063,639.6875 3321.4688,639.9844 L3321.4688,642.7031 Q3320.8438,642.125 3320.25,641.8594 Q3319.6563,641.5781 3319.0313,641.5781 Q3317.6875,641.5781 3317,642.6563 Q3316.3125,643.7188 3316.3125,645.8125 Q3316.3125,647.9063 3317,648.9844 Q3317.6875,650.0469 3319.0313,650.0469 Q3319.6563,650.0469 3320.25,649.7813 Q3320.8438,649.5 3321.4688,648.9219 L3321.4688,651.6406 Z "/><text fill="#000000" font-family="sans-serif" font-size="12" lengthAdjust="spacingAndGlyphs" textLength="100" x="3332.5" y="650.1543">{Any}Command</text><line style="stroke: #A80036; stroke-width: 1.5;" x1="3304.5" x2="3434.5" y1="662" y2="662"/><line style="stroke: #A80036; stroke-width: 1.5;" x1="3304.5" x2="3434.5" y1="670" y2="670"/><!--MD5=[c718e1ea010239ffea4337c997db4d77]
reverse link SportManagementSystem to CLI--><path d="M204.26,786.15 C386.28,815.95 757.86,876.76 856.83,892.96 " fill="none" id="SportManagementSystem&lt;-CLI" style="stroke: #A80036; stroke-width: 1.0; stroke-dasharray: 7.0,7.0;"/><polygon fill="#A80036" points="199.19,785.33,207.4328,790.7203,204.1254,786.1311,208.7146,782.8237,199.19,785.33" style="stroke: #A80036; stroke-width: 1.0;"/><!--MD5=[e0ffea9f9ee189e5b060c1c2b241b02c]
reverse link Command to ExitCommand--><path d="M1006.04,316.23 C1446.97,427.6 1603.61,270.74 2017.5,441 C2041.72,450.96 2065.17,467.75 2084.15,483.78 " fill="none" id="Command&lt;-ExitCommand" style="stroke: #A80036; stroke-width: 1.0;"/><polygon fill="none" points="1004.13,322.97,986.53,311.17,1007.64,309.41,1004.13,322.97" style="stroke: #A80036; stroke-width: 1.0;"/><!--MD5=[1bb9969503f2876cae3df7ad237ff645]
reverse link Command to CreatePlayerCommand--><path d="M1006,316.39 C1295.21,399.74 1388.49,348.81 1667.5,441 C1710.64,455.25 1756.75,477.99 1790.81,496.37 " fill="none" id="Command&lt;-CreatePlayerCommand" style="stroke: #A80036; stroke-width: 1.0;"/><polygon fill="none" points="1003.87,323.07,986.66,310.71,1007.82,309.63,1003.87,323.07" style="stroke: #A80036; stroke-width: 1.0;"/><!--MD5=[7bd32000b4dd51188bb26941194f5939]
reverse link Command to LoginCommand--><path d="M1006.35,316.22 C1395.74,404.72 1510.15,325.72 1899.5,376 C2051.21,395.59 2103.23,367.7 2237.5,441 C2264.7,455.85 2288.15,483.03 2302.72,502.66 " fill="none" id="Command&lt;-LoginCommand" style="stroke: #A80036; stroke-width: 1.0;"/><polygon fill="none" points="1004.59,323,986.69,311.66,1007.76,309.36,1004.59,323" style="stroke: #A80036; stroke-width: 1.0;"/><!--MD5=[77c03292166ac3c9746fab88d1e03bcc]
reverse link Command to LogoutCommand--><path d="M1006.37,316.03 C1489.7,415.64 2673.89,253.47 3092.5,441 C3122.2,454.3 3147.46,482.66 3162.77,502.96 " fill="none" id="Command&lt;-LogoutCommand" style="stroke: #A80036; stroke-width: 1.0;"/><polygon fill="none" points="1004.72,322.84,986.67,311.74,1007.71,309.16,1004.72,322.84" style="stroke: #A80036; stroke-width: 1.0;"/><!--MD5=[21f10e5da84191ca5158a30fffeb2de3]
reverse link Command to {Any}Command--><path d="M1006.51,316.04 C1461.55,405.6 2537.31,323.75 2963.5,376 C3098.91,392.6 3155.75,357.33 3263.5,441 C3326.39,489.84 3354.77,585.97 3364.88,629.99 " fill="none" id="Command&lt;-{Any}Command" style="stroke: #A80036; stroke-width: 1.0;"/><polygon fill="none" points="1004.8,322.84,986.63,311.93,1007.63,309.12,1004.8,322.84" style="stroke: #A80036; stroke-width: 1.0;"/><!--MD5=[e2cd2fed8b1781a65b16bbd67894abc6]
link AddPlayerToTeamCommand to CreateTeamCommand--><!--MD5=[1006e827e74d5cc45f84afb792ce9fde]
link CreateTeamCommand to CreateTournamentCommand--><!--MD5=[8893c3d0b8225cdac1c74f2b0a8d004b]
link CreateTournamentCommand to DeletePlayerCommand--><!--MD5=[ab340b41582027e54f0fe23612b525da]
link AddPlayerToTeamCommand to DeleteTeamCommand--><!--MD5=[4a931bc833f24d0d7d30b0e07f1fbb14]
link DeleteTeamCommand to DeleteTournamentCommand--><!--MD5=[4c648e63f1cd3c41d32c7446ab5f4ebf]
link DeleteTournamentCommand to RemovePlayerFromTeamCommand--><!--MD5=[ae8479afaac1a8f1e4621a57742b361e]
link RemovePlayerFromTeamCommand to TournamentMatchmakingCommand--><!--MD5=[32423d31ee82b87fc1b8fc850f534a96]
link DeleteTeamCommand to AddCurrentToTournamentCommand--><!--MD5=[2cae0cf924c306f5f7e5fc9643ee4a25]
link AddCurrentToTournamentCommand to RemoveCurrentFromTournamentCommand--><!--MD5=[86e807b61db6ffb1caaa9695575b09bf]
link RemoveCurrentFromTournamentCommand to ShowStatisticsCommand--><!--MD5=[f1f7ec307712da13a595c79b38e37aaf]
link ShowStatisticsCommand to ListTournamentsCommand--><!--MD5=[77cb1deda85186e2d3a06d5161eb3c7d]
link Category to Match--><!--MD5=[a373396d681ea75cb6d84e42998d1500]
link Match to MatchList--><!--MD5=[46faf311342ecc11e28843c1c4ea57e9]
link MatchList to Participant--><!--MD5=[d1efb4fc08dbe77b26b256e143c5d8ec]
link Category to ParticipantSet--><!--MD5=[2d6751c04ead3a77cd3fcae1c3f78922]
link ParticipantSet to Player--><!--MD5=[e485ea5ff355d55126428d0bf97c6d70]
link Player to Role--><!--MD5=[777076c2bfeddcd0a79cc91ffc93ceed]
link Role to Team--><!--MD5=[e338d56f937ed9fac6cf3203668f73ca]
link ParticipantSet to Tournament--><!--MD5=[fd015459a89c1705d1f67d0e4df9bf3d]
link Tournament to TournamentList--><!--MD5=[f9530dbff151bf0cf47a76242735d87c]
link TournamentList to User--><!--MD5=[1f75e5d491aa0839ba7ddb77c0c3ed8e]
link CommandView to Error--><!--MD5=[9f397e8a831ca020a75b394276802d0c]
link Error to Message--><!--MD5=[71125abc74b2c45cd22060decb983a0f]
link CommandView to ParticipantSetView--><!--MD5=[e4e5fa2ad5423ff4f39d358ae3903605]
link ParticipantSetView to TournamentListView--><!--MD5=[f6c1d06dc4ec14c8d27e9af7d3e58c01]
link DeletePlayerCommand to Category--><!--MD5=[63494d4117da43afdf60fbf984466a15]
link AddCurrentToTournamentCommand to CommandView--><!--MD5=[f6c2fcea702869588481c14f479df61d]
@startuml

set separator ,
skinparam roundcorner 13
skinparam backgroundcolor #FFE299

package src.main.java.org.example {
    package commands {
        class AddPlayerToTeamCommand
        class CreatePlayerCommand
        class CreateTeamCommand
        class CreateTournamentCommand
        class DeletePlayerCommand
        class DeleteTeamCommand
        class DeleteTournamentCommand
        class RemovePlayerFromTeamCommand
        class TournamentMatchmakingCommand
        class AddCurrentToTournamentCommand
        class RemoveCurrentFromTournamentCommand
        class ShowStatisticsCommand
        class ExitCommand
        class ListTournamentsCommand
        class LoginCommand
        class LogoutCommand
    }

    package models {
        enum Category
        abstract Command
        class Match <<deprecated>>
        class MatchList <<deprecated>>
        abstract Participant
        class ParticipantSet
        class Player
        enum Role
        class Team
        class Tournament
        class TournamentList
        class User
    }

    package views {
        class CLI
        class CommandView
        enum Error
        enum Message
        class ParticipantSetView
        class TournamentListView
    }

    package app {
        class SportsManagementSystem
    }
}

SportManagementSystem <.up. CLI

Command <|-down- ExitCommand
Command <|-down- - CreatePlayerCommand
Command <|-down- - LoginCommand
Command <|-down- LogoutCommand
Command <|-down- - - "{Any}Command"

SportsManagementSystem : + {static} void main(String[] args)
SportsManagementSystem : + void start()
SportsManagementSystem : + void pullInitialData(CLI cli)

Command : - String name
Command : - String usage
Command : - String description
Command : + Command(String name, String usage, String description)
Command : + {abstract} void run()
Command : + boolean matches(String commandName)
Command : + String getName()
Command : + String getUsage()
Command : + String getDescription()

CreatePlayerCommand : + CreatePlayerCommand(ParticipantSet participants)

ShowStatisticsCommand : + ShowStatisticsCommand(ParticipantSet participants)

ExitCommand : - boolean executed
ExitCommand : + ExitCommand()
ExitCommand : + boolean hasBeenExecuted()

@enduml

PlantUML version 1.2020.02(Sun Mar 01 11:22:07 CET 2020)
(GPL source distribution)
Java Runtime: OpenJDK Runtime Environment
JVM: OpenJDK 64-Bit Server VM
Java Version: 21.0.5+11-Ubuntu-1ubuntu124.04
Operating System: Linux
Default Encoding: UTF-8
Language: en
Country: US
--></g></svg>